<svg width="42" height="18" viewBox="0 0 42 18" fill="none" xmlns="http://www.w3.org/2000/svg">
<g clip-path="url(#clip0_2_8949)">
<path d="M7.99147 2.33092C7.51095 2.93803 6.74211 3.41687 5.97327 3.34846C5.87717 2.52759 6.25358 1.65541 6.69406 1.11672C7.17458 0.492513 8.0155 0.0478748 8.69624 0.0136719C8.77633 0.868746 8.46399 1.70672 7.99147 2.33092ZM8.68823 3.51093C7.57502 3.44252 6.62198 4.18643 6.09341 4.18643C5.55682 4.18643 4.74794 3.54513 3.86698 3.56223C2.72173 3.57933 1.65657 4.27194 1.07193 5.37499C-0.129378 7.58108 0.759591 10.8475 1.92086 12.6431C2.48948 13.5324 3.17022 14.5072 4.0672 14.473C4.91612 14.4388 5.25249 13.883 6.27761 13.883C7.31073 13.883 7.60706 14.473 8.50403 14.4559C9.43305 14.4388 10.0177 13.5666 10.5863 12.6773C11.235 11.6683 11.4993 10.685 11.5153 10.6337C11.4993 10.6166 9.72136 9.88978 9.70534 7.70079C9.68933 5.87093 11.1069 4.99875 11.1709 4.94745C10.3701 3.68194 9.1207 3.54513 8.68823 3.51093ZM15.1192 1.03121V14.3618H17.0574V9.80427H19.7403C22.191 9.80427 23.9128 8.00862 23.9128 5.40919C23.9128 2.80976 22.223 1.03121 19.8044 1.03121H15.1192ZM17.0574 2.77556H19.2918C20.9736 2.77556 21.9347 3.73324 21.9347 5.41774C21.9347 7.10224 20.9736 8.06847 19.2838 8.06847H17.0574V2.77556ZM27.4527 14.4644C28.67 14.4644 29.7992 13.806 30.3118 12.7628H30.3519V14.3618H32.1458V7.72644C32.1458 5.80253 30.7042 4.56267 28.4858 4.56267C26.4276 4.56267 24.9059 5.81963 24.8498 7.54688H26.5958C26.7399 6.726 27.4527 6.18731 28.4298 6.18731C29.615 6.18731 30.2798 6.77731 30.2798 7.86325V8.59862L27.8611 8.75253C25.6107 8.89789 24.3934 9.88123 24.3934 11.5914C24.3934 13.3186 25.6507 14.4644 27.4527 14.4644ZM27.9733 12.8825C26.9401 12.8825 26.2834 12.3524 26.2834 11.5401C26.2834 10.7021 26.9161 10.2147 28.1254 10.1378L30.2798 9.99239V10.7449C30.2798 11.9933 29.2867 12.8825 27.9733 12.8825ZM34.5404 17.9873C36.4305 17.9873 37.3194 17.2178 38.0963 14.8834L41.5 4.69093H39.5299L37.2474 12.5662H37.2073L34.9248 4.69093H32.8986L36.1822 14.396L36.006 14.986C35.7097 15.9865 35.2292 16.3712 34.3722 16.3712C34.2201 16.3712 33.9237 16.3541 33.8036 16.337V17.936C33.9157 17.9702 34.3963 17.9873 34.5404 17.9873Z" fill="black"/>
</g>
<defs>
<clipPath id="clip0_2_8949">
<rect width="41" height="17.9737" fill="white" transform="translate(0.5 0.0136719)"/>
</clipPath>
</defs>
</svg>
