<svg width="19" height="19" viewBox="0 0 19 19" fill="none" xmlns="http://www.w3.org/2000/svg">
<path d="M10.7529 2.41211C12.2529 2.41211 13.0029 3.16961 13.0029 4.68461V9.97211C13.0029 11.4646 11.9454 12.0421 10.6479 11.2621L9.65793 10.6621C9.43293 10.5271 9.07293 10.5271 8.84793 10.6621L7.85793 11.2621C6.56043 12.0421 5.50293 11.4646 5.50293 9.97211V4.68461C5.50293 3.16961 6.25293 2.41211 7.75293 2.41211H10.7529Z" stroke="white" stroke-width="1.5" stroke-linecap="round" stroke-linejoin="round"/>
<path d="M1.75293 12.1103C1.75293 15.8978 3.25293 17.4128 7.00293 17.4128H11.5029C15.2529 17.4128 16.7529 15.8978 16.7529 12.1103V9.83781C16.7529 6.60531 15.6579 5.02281 13.0029 4.63281" stroke="white" stroke-width="1.5" stroke-linecap="round" stroke-linejoin="round"/>
<path d="M5.36802 4.6543C3.23802 5.0068 2.15052 6.1618 1.84302 8.3668" stroke="white" stroke-width="1.5" stroke-linecap="round" stroke-linejoin="round"/>
</svg>
