<svg width="342" height="182" viewBox="0 0 342 182" fill="none" xmlns="http://www.w3.org/2000/svg">
<g clip-path="url(#clip0_2_10968)">
<path d="M40.3045 149.963C39.8792 149.788 39.3375 150.77 38.9723 150.596C38.6083 150.421 39.0194 149.386 38.6865 148.034C38.6264 147.79 38.248 146.255 37.6256 146.184C36.4459 146.051 35.4272 151.299 33.6642 151.254C33.2773 151.244 32.8134 150.978 31.6104 150.906C31.1318 150.877 30.8719 150.899 30.7367 151.076C30.5448 151.327 30.7717 151.67 30.9999 152.52C31.3421 153.794 31.0722 153.916 31.4275 154.867C31.6913 155.573 31.9785 155.877 31.8326 156.097C31.626 156.408 30.9175 156.002 30.6093 156.335C30.2949 156.674 30.6095 157.555 30.9383 158.14C31.5553 159.238 32.4006 159.613 33.1134 160.147C33.8881 160.728 34.8684 161.769 35.5846 163.779L41.3165 181.857C40.2162 178.087 37.3661 167.62 36.4583 163.609C36.1963 162.451 35.9645 161.25 36.5652 160.224C37.1435 159.235 38.4238 158.528 39.5995 157.016C39.7368 156.84 40.113 156.343 39.9592 156.012C39.8321 155.738 39.4587 155.826 39.3363 155.572C39.1722 155.231 39.711 154.796 40.1216 153.924C40.4111 153.309 40.4898 152.79 40.5574 152.344C40.5778 152.209 40.8706 150.195 40.3045 149.963Z" fill="#F2F2F2"/>
<path d="M26.7115 172.733C26.5059 172.898 26.8163 173.456 26.6278 173.591C26.4401 173.725 26.0666 173.218 25.3285 172.997C25.1954 172.957 24.3566 172.706 24.1436 173.001C23.7397 173.561 25.9391 175.591 25.4091 176.472C25.2928 176.666 25.0327 176.824 24.6511 177.413C24.4993 177.648 24.4347 177.786 24.4797 177.905C24.5436 178.075 24.7723 178.059 25.2418 178.189C25.9458 178.383 25.9259 178.555 26.4801 178.649C26.8916 178.719 27.1187 178.661 27.1812 178.798C27.2697 178.993 26.8721 179.235 26.9413 179.487C27.012 179.745 27.5211 179.839 27.8939 179.841C28.5934 179.845 29.0153 179.525 29.475 179.318C29.9744 179.092 30.7519 178.896 31.9134 179.113L42.1553 181.422C40.0468 180.892 34.2519 179.317 32.0847 178.62C31.4591 178.419 30.8215 178.19 30.5072 177.589C30.2046 177.011 30.2381 176.158 29.859 175.125C29.8148 175.005 29.6874 174.671 29.4856 174.653C29.3187 174.638 29.2529 174.853 29.097 174.842C28.8877 174.827 28.8362 174.428 28.5405 173.968C28.332 173.644 28.1081 173.454 27.9156 173.291C27.8575 173.242 26.9852 172.513 26.7115 172.733Z" fill="#F2F2F2"/>
<path d="M31.539 170.405L30.5583 169.359L30.5501 169.227C30.5126 168.615 30.3532 168.116 30.0765 167.743C30.0326 167.683 29.9856 167.626 29.9379 167.568C29.7485 167.338 29.5131 167.051 29.4041 166.585C29.3439 166.325 29.2459 165.69 29.6423 165.462C29.7482 165.4 29.8544 165.387 29.9489 165.397C29.9471 165.377 29.9454 165.357 29.9435 165.336C29.9238 165.073 29.9555 164.928 29.9861 164.789C30.0096 164.682 30.0339 164.572 30.038 164.353C30.0398 164.257 30.0368 164.177 30.0343 164.109C30.0273 163.903 30.0294 163.65 30.243 163.484C30.4772 163.315 30.7399 163.413 30.9139 163.479C31.2243 163.595 31.4105 163.708 31.534 163.784C31.5791 163.812 31.63 163.842 31.6491 163.849C31.8047 163.902 32.3193 163.326 32.5142 163.11C32.9506 162.624 33.3282 162.204 33.7508 162.388C34.0533 162.519 34.189 162.904 34.164 163.562C34.1561 163.767 34.1195 163.947 34.0796 164.098C34.1949 164.083 34.3214 164.102 34.4378 164.196C34.7128 164.42 34.6898 164.882 34.3703 165.572C34.2914 165.743 34.1844 165.974 33.9721 166.213C33.872 166.325 33.7718 166.413 33.685 166.487C33.7228 166.542 33.7538 166.609 33.7667 166.693C33.8051 166.94 33.676 167.176 33.373 167.386C33.0432 167.622 32.7355 167.767 32.4643 167.896C32.2276 168.009 32.0242 168.107 31.8953 168.225C31.6588 168.447 31.6203 168.811 31.5944 169.263L31.539 170.405Z" fill="#F2F2F2"/>
<path d="M27.0157 163.124L26.2846 164.37L26.1629 164.411C25.6002 164.604 25.1734 164.89 24.8938 165.261C24.8494 165.32 24.8079 165.381 24.7655 165.444C24.5978 165.692 24.3894 165.999 23.9808 166.227C23.7525 166.353 23.1825 166.612 22.8685 166.274C22.7832 166.184 22.7447 166.081 22.7295 165.984C22.7115 165.991 22.6933 165.997 22.6737 166.005C22.4329 166.091 22.2896 166.096 22.1515 166.1C22.0453 166.104 21.9358 166.108 21.73 166.159C21.6397 166.182 21.565 166.205 21.5021 166.225C21.3115 166.284 21.0737 166.346 20.8642 166.175C20.6463 165.984 20.6721 165.696 20.689 165.506C20.719 165.166 20.7782 164.951 20.8175 164.809C20.832 164.757 20.848 164.698 20.8495 164.677C20.8593 164.508 20.1897 164.14 19.9384 164C19.3727 163.687 18.8832 163.416 18.9482 162.947C18.9944 162.612 19.32 162.379 19.9429 162.237C20.1368 162.192 20.3149 162.183 20.4656 162.185C20.4229 162.073 20.4079 161.942 20.4669 161.802C20.6067 161.471 21.0457 161.376 21.7721 161.521C21.9529 161.556 22.1956 161.605 22.4733 161.756C22.6041 161.828 22.7117 161.905 22.8028 161.973C22.8443 161.922 22.8993 161.874 22.9748 161.84C23.1969 161.738 23.4501 161.808 23.7235 162.057C24.0279 162.327 24.2424 162.598 24.432 162.836C24.5976 163.044 24.7408 163.222 24.8839 163.321C25.152 163.501 25.5022 163.447 25.9325 163.358L27.0157 163.124Z" fill="#F2F2F2"/>
<path d="M23.9169 160.208L22.9362 159.162L22.9281 159.029C22.8905 158.418 22.7312 157.919 22.4545 157.546C22.4105 157.486 22.3636 157.429 22.3158 157.371C22.1265 157.141 21.891 156.854 21.7821 156.388C21.7218 156.128 21.6238 155.493 22.0202 155.265C22.1261 155.202 22.2323 155.19 22.3269 155.199C22.325 155.18 22.3234 155.16 22.3214 155.138C22.3018 154.876 22.3335 154.731 22.3641 154.592C22.3875 154.485 22.4118 154.375 22.4159 154.156C22.4177 154.06 22.4147 153.979 22.4123 153.912C22.4053 153.706 22.4074 153.453 22.6209 153.287C22.8552 153.117 23.1178 153.216 23.2918 153.281C23.6022 153.397 23.7885 153.511 23.912 153.587C23.957 153.614 24.0079 153.645 24.0271 153.652C24.1826 153.704 24.6972 153.129 24.8921 152.913C25.3285 152.427 25.7062 152.007 26.1287 152.191C26.4312 152.322 26.5669 152.706 26.5419 153.365C26.534 153.57 26.4974 153.75 26.4575 153.9C26.5729 153.886 26.6994 153.904 26.8157 153.999C27.0907 154.223 27.0677 154.685 26.7483 155.375C26.6693 155.546 26.5623 155.776 26.35 156.016C26.2499 156.128 26.1497 156.216 26.0629 156.29C26.1007 156.344 26.1317 156.411 26.1446 156.496C26.1831 156.743 26.0539 156.979 25.751 157.189C25.4211 157.424 25.1134 157.57 24.8422 157.699C24.6056 157.812 24.4022 157.91 24.2732 158.028C24.0367 158.25 23.9982 158.614 23.9723 159.066L23.9169 160.208Z" fill="#F2F2F2"/>
<path d="M41.6745 181.542L41.3296 181.577L41.0827 181.825C41.059 181.802 40.9996 181.754 40.9075 181.679C40.4033 181.263 38.8682 179.999 36.7246 177.79C35.2282 176.248 33.7893 174.583 32.447 172.841C31.1027 171.097 30.1849 169.696 29.447 168.571C28.8906 167.722 28.3736 166.903 27.8704 166.105C26.5254 163.974 25.2547 161.962 23.5768 159.95C23.2024 159.5 22.4228 158.565 21.0955 157.968C20.3256 157.621 19.4855 157.438 18.5986 157.425L18.6086 156.709C19.588 156.724 20.518 156.927 21.3729 157.312C22.8445 157.975 23.694 158.993 24.1022 159.483C25.8097 161.53 27.0924 163.563 28.4503 165.714C28.952 166.509 29.4665 167.324 30.0207 168.169C30.7517 169.285 31.6616 170.673 32.9887 172.395C34.3147 174.116 35.7362 175.761 37.2135 177.283C39.3302 179.464 40.8426 180.709 41.3394 181.118C41.6045 181.337 41.66 181.383 41.6745 181.542Z" fill="#F2F2F2"/>
<path d="M18.2662 159.128C18.2437 159.146 18.2206 159.163 18.1963 159.18C17.7099 159.527 17.0617 159.583 16.2695 159.348C15.8975 159.236 15.5869 159.019 14.9676 158.585C14.8719 158.518 14.3928 158.174 13.8405 157.616C13.4795 157.252 13.3587 157.075 13.3242 156.862C13.2855 156.624 13.3387 156.394 13.438 156.189C13.3906 156.14 13.3544 156.08 13.3346 156.005C13.2514 155.694 13.523 155.527 13.6686 155.434C13.7432 155.389 13.8368 155.333 13.9246 155.255C14.0633 155.133 14.1076 155.027 14.1752 154.867C14.2398 154.713 14.3202 154.523 14.4945 154.314C14.8367 153.901 15.268 153.747 15.41 153.697C16.1556 153.428 16.8041 153.671 17.5547 153.952C17.7049 154.009 18.2376 154.227 18.8031 154.657C19.2112 154.968 19.328 155.157 19.3932 155.315C19.5279 155.639 19.4844 155.921 19.3355 156.586C19.1805 157.281 19.1025 157.63 19.0019 157.884C18.7671 158.475 18.6196 158.846 18.2662 159.128Z" fill="#F2F2F2"/>
<path d="M40.9912 117.626L49.0085 131.336L95.73 128.48L83.2894 111.914L40.9912 117.626Z" fill="#F2F2F2"/>
<path d="M54.9519 181.749C54.6798 181.749 54.4428 181.541 54.4048 181.255L40.4437 75.9111C40.4022 75.5984 40.6139 75.3103 40.9164 75.2676C41.2188 75.2224 41.4977 75.4433 41.5392 75.756L55.5004 181.1C55.5418 181.413 55.3302 181.701 55.0277 181.743C55.0022 181.747 54.9769 181.749 54.9519 181.749Z" fill="#F2F2F2"/>
<path d="M40.9914 181.881C40.686 181.881 40.4385 181.625 40.4385 181.31V75.8525C40.4385 75.537 40.686 75.2812 40.9914 75.2812C41.2967 75.2812 41.5443 75.537 41.5443 75.8525V181.31C41.5443 181.625 41.2967 181.881 40.9914 181.881Z" fill="#F2F2F2"/>
<path d="M111.074 181.463C110.839 181.463 110.621 181.306 110.547 181.063L77.51 72.5769C77.4184 72.2759 77.5802 71.9551 77.8715 71.8603C78.1627 71.766 78.4733 71.9331 78.5648 72.2338L111.602 180.72C111.693 181.02 111.531 181.341 111.24 181.436C111.185 181.454 111.129 181.463 111.074 181.463Z" fill="#F2F2F2"/>
<path d="M100.983 181.596C100.736 181.596 100.511 181.424 100.448 181.165L77.5015 85.4192C77.4263 85.1135 77.6052 84.8024 77.9011 84.7246C78.1979 84.6474 78.498 84.8317 78.5734 85.1374L101.519 180.884C101.595 181.189 101.416 181.5 101.12 181.578C101.074 181.59 101.028 181.596 100.983 181.596Z" fill="#F2F2F2"/>
<path d="M40.9912 77.5322L79.2807 76.9238L86.3304 118.482H41.5441L40.9912 77.5322Z" fill="#F2F2F2"/>
<path d="M342 181.301H0V182H342V181.301Z" fill="#E6E6E6"/>
<path d="M70.1218 32.1239C71.282 32.7975 73.1543 30.1334 73.5786 31.4365C74.0029 32.7396 72.9752 37.9976 72.445 39.2586C72.1815 39.8854 71.8089 40.4586 71.5504 41.0876C71.2918 41.7166 71.1531 42.4399 71.3817 43.0811C71.7794 44.1972 73.0922 44.6511 73.7431 45.632C74.5012 46.7745 74.195 48.3132 73.8406 49.6491C73.5351 50.8005 73.2096 51.9623 72.6216 52.9901C72.0336 54.0179 71.1471 54.9128 70.0394 55.2529C68.629 55.6858 67.1217 55.1713 65.762 54.5904C64.4548 54.0319 63.1616 53.3988 62.0498 52.4952C60.938 51.5917 60.0103 50.3924 59.6217 48.9872C59.1342 47.2245 59.5415 45.2955 60.3856 43.683C61.2296 42.0706 62.4783 40.7272 63.7595 39.4589C65.9172 37.3229 68.2135 35.3362 70.6278 33.5167" fill="#2F2E41"/>
<path d="M77.3224 95.4023L108.281 107.518C108.281 107.518 110.861 110.183 111.33 114.787C111.799 119.391 120.477 145.56 120.477 145.56L112.971 148.468C112.971 148.468 100.307 128.356 101.01 120.118C101.01 120.118 99.603 116.233 98.8994 116.116C98.1958 115.998 87.6418 110.425 80.8404 111.152C74.0389 111.879 56.2143 114.06 55.7453 105.579C55.2762 97.0985 59.3898 97.0985 59.3898 97.0985L77.3224 95.4023Z" fill="#2F2E41"/>
<path d="M118.835 143.379C118.835 143.379 120.946 142.652 122.353 144.106C123.761 145.56 123.761 146.771 123.761 146.771C123.761 146.771 134.784 146.529 135.253 147.983C135.722 149.437 134.08 155.252 130.093 155.494C126.106 155.737 112.503 158.644 112.503 155.979C112.503 153.314 112.737 147.256 113.676 147.256C114.614 147.256 118.835 143.379 118.835 143.379Z" fill="#2F2E41"/>
<path d="M79.9971 103.107L102.561 128.135C102.561 128.135 103.731 131.705 102.179 136.047C100.626 140.39 97.1886 167.823 97.1886 167.823L89.2132 166.996C89.2132 166.996 86.4789 143.17 90.6412 136.105C90.6412 136.105 91.0446 131.978 90.4641 131.551C89.8835 131.124 82.8098 121.299 76.4001 118.838C69.9903 116.378 53.0742 110.178 56.289 102.36C59.5037 94.5413 63.1919 96.4234 63.1919 96.4234L79.9971 103.107Z" fill="#2F2E41"/>
<path d="M96.6521 165.117C96.6521 165.117 98.8563 165.431 99.4947 167.379C100.133 169.326 99.6139 170.412 99.6139 170.412C99.6139 170.412 109.601 175.238 109.398 176.757C109.196 178.275 105.231 182.737 101.552 181.13C97.8737 179.523 84.431 175.907 85.5735 173.517C86.7161 171.127 89.523 165.803 90.3641 166.232C91.2052 166.662 96.6521 165.117 96.6521 165.117Z" fill="#2F2E41"/>
<path d="M59.3804 51.666L66.8855 56.7545L75.3287 70.0813C75.3287 70.0813 77.2049 84.1351 76.5013 84.8621C75.7977 85.589 76.0323 86.3159 76.0323 87.7697C76.0323 89.2236 77.7552 89.3781 76.6592 90.6335C75.5632 91.8889 74.6435 92.1503 76.276 92.6254C77.9085 93.1005 79.8051 92.6369 78.8568 94.0802C77.9085 95.5236 78.6121 96.0082 78.1431 96.4928C77.674 96.9774 58.6866 117.695 55.1686 109.699C51.6506 101.703 51.4062 71.0506 51.4062 71.0506L53.9406 61.0652L59.3804 51.666Z" fill="#CCCCCC"/>
<path d="M36.2568 108.752C35.4583 111.542 36.2043 114.229 37.923 114.754C39.6417 115.279 41.6818 113.443 42.4803 110.651C42.814 109.541 42.8856 108.364 42.6889 107.219L45.928 95.3541L40.5061 93.9023L37.8886 105.754C37.1207 106.604 36.5612 107.632 36.2568 108.752Z" fill="#FFB6B6"/>
<path d="M67.1363 68.5163C67.1363 68.5163 58.395 61.6219 55.0674 65.9698C51.7399 70.3177 39.5503 89.6199 39.5503 89.6199L38.7422 96.9758L45.6554 98.552L56.8292 81.5413L67.1363 68.5163Z" fill="#CCCCCC"/>
<path d="M111.081 41.7228C113.086 39.6794 113.69 36.9545 112.431 35.6367C111.172 34.3189 108.527 34.9073 106.522 36.9517C105.71 37.757 105.097 38.7514 104.733 39.8518L96.3457 48.6205L100.412 52.5994L108.25 43.5326C109.32 43.1716 110.291 42.551 111.081 41.7228Z" fill="#FFB6B6"/>
<path d="M65.2227 61.5202C65.2227 61.5202 69.6484 71.9215 74.5958 69.7775C79.5433 67.6334 99.246 56.8253 99.246 56.8253L103.395 50.7898L98.0814 45.957L80.3402 55.2666L65.2227 61.5202Z" fill="#CCCCCC"/>
<path d="M67.2234 49.5986C71.8725 49.5986 75.6412 45.705 75.6412 40.9019C75.6412 36.0988 71.8725 32.2051 67.2234 32.2051C62.5744 32.2051 58.8057 36.0988 58.8057 40.9019C58.8057 45.705 62.5744 49.5986 67.2234 49.5986Z" fill="#FFB6B6"/>
<path d="M57.7352 54.5214C59.6999 57.4169 60.7047 60.9945 60.5452 64.5269C62.7728 63.412 64.2763 61.0566 64.788 58.5546C65.2997 56.0526 64.9093 53.4255 64.087 51.0134C64.0788 50.9893 64.0705 50.9652 64.0622 50.9411C62.8137 47.3207 63.9738 43.2744 66.9893 41.0238C69.0234 39.5058 70.7875 37.6013 72.1415 35.4182C72.9059 34.1858 73.5556 32.6397 72.9845 31.3002C72.4583 30.0658 71.099 29.4888 69.8481 29.1028C66.9918 28.2213 63.9569 27.7198 61.0251 28.2775C58.0933 28.8353 55.271 30.5772 53.8854 33.3041C52.4998 36.0311 52.8628 39.7527 55.1118 41.7743C54.4025 42.0112 53.9006 42.788 53.9609 43.5557C54.0211 44.3233 54.6375 45.0064 55.3745 45.1222C54.8937 45.1046 54.6099 45.7589 54.7813 46.2233C54.9528 46.6878 55.395 46.9763 55.8169 47.2154C56.4178 47.5559 57.0839 47.912 57.0864 48.8037C57.0875 49.1613 56.9641 49.5083 56.7624 49.7989C56.2738 50.5032 55.4849 50.8203 54.7254 51.1181C56.3317 51.6069 57.6125 53.0901 57.9001 54.7944" fill="#2F2E41"/>
<path d="M127.609 52.1556C141.549 52.1556 152.849 40.481 152.849 26.0797C152.849 11.6785 141.549 0.00390625 127.609 0.00390625C113.67 0.00390625 102.37 11.6785 102.37 26.0797C102.37 40.481 113.67 52.1556 127.609 52.1556Z" fill="#414141"/>
<path d="M126.302 26.2048L123.893 40.9707L126.398 41.4071L128.807 26.6412L126.302 26.2048Z" fill="white"/>
<path d="M135.644 35.3067L127.032 29.6193L117.092 32.0749L130.076 10.9727L135.644 35.3067Z" fill="white"/>
<path d="M286.747 153.327C287.12 153.175 287.594 154.035 287.913 153.882C288.232 153.729 287.872 152.822 288.164 151.639C288.216 151.426 288.547 150.081 289.092 150.02C290.125 149.903 291.017 154.497 292.56 154.458C292.899 154.449 293.305 154.217 294.358 154.153C294.777 154.128 295.005 154.147 295.123 154.302C295.291 154.522 295.092 154.823 294.893 155.566C294.593 156.682 294.829 156.788 294.518 157.621C294.287 158.239 294.036 158.505 294.164 158.697C294.344 158.97 294.965 158.614 295.234 158.906C295.51 159.203 295.234 159.974 294.946 160.486C294.406 161.447 293.666 161.775 293.042 162.243C292.364 162.752 291.506 163.663 290.879 165.422L285.861 181.248C286.824 177.947 289.32 168.784 290.114 165.274C290.344 164.26 290.546 163.208 290.021 162.31C289.514 161.445 288.394 160.826 287.364 159.502C287.244 159.348 286.915 158.913 287.049 158.623C287.161 158.383 287.488 158.46 287.595 158.238C287.738 157.94 287.267 157.558 286.907 156.795C286.654 156.257 286.585 155.803 286.526 155.412C286.508 155.294 286.252 153.531 286.747 153.327Z" fill="#F2F2F2"/>
<path d="M298.647 173.261C298.827 173.405 298.556 173.894 298.721 174.012C298.885 174.13 299.212 173.685 299.858 173.492C299.975 173.457 300.709 173.237 300.895 173.496C301.249 173.985 299.324 175.763 299.788 176.535C299.889 176.704 300.117 176.843 300.451 177.358C300.584 177.563 300.641 177.684 300.601 177.789C300.545 177.938 300.345 177.924 299.934 178.037C299.318 178.207 299.335 178.357 298.85 178.44C298.49 178.501 298.291 178.45 298.236 178.571C298.159 178.741 298.507 178.953 298.446 179.174C298.384 179.399 297.939 179.482 297.612 179.484C297 179.487 296.631 179.207 296.228 179.025C295.791 178.828 295.11 178.656 294.094 178.846L285.128 180.867C286.974 180.404 292.047 179.025 293.944 178.415C294.491 178.239 295.05 178.038 295.325 177.512C295.59 177.006 295.56 176.259 295.892 175.355C295.931 175.25 296.042 174.957 296.219 174.942C296.365 174.929 296.423 175.117 296.559 175.107C296.742 175.094 296.787 174.745 297.046 174.342C297.229 174.059 297.425 173.893 297.593 173.75C297.644 173.707 298.408 173.068 298.647 173.261Z" fill="#F2F2F2"/>
<path d="M294.422 171.223L295.281 170.307L295.288 170.191C295.321 169.656 295.46 169.219 295.702 168.892C295.741 168.84 295.782 168.79 295.824 168.74C295.99 168.538 296.196 168.287 296.291 167.879C296.344 167.651 296.43 167.095 296.083 166.896C295.99 166.841 295.897 166.83 295.814 166.838C295.816 166.821 295.817 166.804 295.819 166.785C295.836 166.555 295.808 166.429 295.782 166.307C295.761 166.213 295.74 166.117 295.736 165.925C295.735 165.841 295.737 165.771 295.739 165.711C295.745 165.531 295.744 165.309 295.557 165.164C295.352 165.016 295.122 165.102 294.969 165.159C294.698 165.261 294.535 165.361 294.426 165.427C294.387 165.451 294.342 165.478 294.326 165.484C294.19 165.53 293.739 165.026 293.568 164.837C293.186 164.412 292.856 164.044 292.486 164.205C292.221 164.32 292.102 164.656 292.124 165.233C292.131 165.412 292.163 165.57 292.198 165.701C292.097 165.689 291.986 165.705 291.885 165.787C291.644 165.983 291.664 166.388 291.944 166.992C292.013 167.142 292.106 167.344 292.292 167.553C292.38 167.652 292.468 167.728 292.544 167.793C292.51 167.841 292.483 167.9 292.472 167.973C292.438 168.19 292.551 168.396 292.817 168.58C293.105 168.786 293.375 168.914 293.612 169.027C293.819 169.126 293.997 169.211 294.11 169.314C294.317 169.509 294.351 169.827 294.374 170.223L294.422 171.223Z" fill="#F2F2F2"/>
<path d="M298.382 164.85L299.022 165.94L299.128 165.977C299.621 166.145 299.995 166.395 300.239 166.72C300.278 166.772 300.315 166.826 300.352 166.88C300.499 167.097 300.681 167.367 301.039 167.566C301.239 167.676 301.738 167.903 302.012 167.607C302.087 167.528 302.121 167.438 302.134 167.353C302.15 167.359 302.166 167.365 302.183 167.371C302.394 167.447 302.519 167.451 302.64 167.455C302.733 167.459 302.829 167.462 303.009 167.507C303.088 167.527 303.153 167.547 303.208 167.564C303.375 167.616 303.583 167.67 303.767 167.52C303.958 167.353 303.935 167.101 303.92 166.935C303.894 166.637 303.842 166.449 303.808 166.324C303.795 166.279 303.781 166.227 303.78 166.209C303.771 166.061 304.357 165.739 304.577 165.616C305.073 165.343 305.501 165.106 305.444 164.695C305.404 164.401 305.119 164.197 304.573 164.073C304.404 164.034 304.248 164.026 304.116 164.028C304.153 163.93 304.166 163.815 304.115 163.693C303.992 163.402 303.608 163.32 302.972 163.446C302.814 163.477 302.601 163.52 302.358 163.652C302.244 163.715 302.15 163.783 302.07 163.842C302.034 163.797 301.985 163.755 301.919 163.725C301.725 163.637 301.503 163.697 301.264 163.916C300.997 164.152 300.81 164.389 300.644 164.597C300.499 164.779 300.373 164.936 300.248 165.022C300.013 165.18 299.707 165.133 299.33 165.055L298.382 164.85Z" fill="#F2F2F2"/>
<path d="M301.095 162.297L301.953 161.381L301.961 161.266C301.994 160.73 302.133 160.294 302.375 159.967C302.414 159.915 302.455 159.865 302.497 159.814C302.662 159.612 302.868 159.361 302.964 158.953C303.017 158.726 303.102 158.169 302.755 157.97C302.663 157.915 302.57 157.904 302.487 157.913C302.489 157.895 302.49 157.878 302.492 157.859C302.509 157.629 302.481 157.503 302.454 157.381C302.434 157.287 302.413 157.191 302.409 156.999C302.407 156.915 302.41 156.845 302.412 156.785C302.418 156.605 302.416 156.384 302.229 156.238C302.024 156.09 301.795 156.177 301.642 156.234C301.37 156.335 301.207 156.435 301.099 156.501C301.06 156.525 301.015 156.552 300.999 156.558C300.862 156.604 300.412 156.1 300.241 155.911C299.859 155.486 299.529 155.118 299.159 155.279C298.894 155.394 298.775 155.73 298.797 156.307C298.804 156.486 298.836 156.644 298.871 156.776C298.77 156.763 298.659 156.779 298.557 156.862C298.317 157.058 298.337 157.463 298.616 158.066C298.686 158.216 298.779 158.418 298.965 158.627C299.053 158.726 299.14 158.803 299.216 158.867C299.183 158.915 299.156 158.974 299.145 159.047C299.111 159.264 299.224 159.47 299.489 159.654C299.778 159.861 300.048 159.988 300.285 160.101C300.492 160.2 300.67 160.285 300.783 160.389C300.99 160.583 301.024 160.902 301.046 161.298L301.095 162.297Z" fill="#F2F2F2"/>
<path d="M285.549 180.973L285.851 181.004L286.067 181.221C286.088 181.201 286.14 181.159 286.22 181.093C286.662 180.729 288.005 179.623 289.882 177.689C291.192 176.339 292.452 174.881 293.627 173.357C294.803 171.829 295.607 170.603 296.253 169.618C296.74 168.875 297.193 168.158 297.633 167.46C298.81 165.594 299.923 163.833 301.392 162.071C301.719 161.678 302.402 160.86 303.564 160.336C304.238 160.033 304.973 159.873 305.75 159.861L305.741 159.234C304.883 159.248 304.069 159.425 303.321 159.762C302.033 160.342 301.289 161.234 300.932 161.663C299.437 163.455 298.314 165.234 297.125 167.117C296.686 167.813 296.236 168.527 295.751 169.267C295.111 170.243 294.314 171.458 293.152 172.966C291.992 174.473 290.747 175.912 289.454 177.245C287.601 179.155 286.277 180.244 285.842 180.602C285.61 180.794 285.562 180.834 285.549 180.973Z" fill="#F2F2F2"/>
<path d="M306.041 161.351C306.06 161.366 306.081 161.382 306.102 161.396C306.528 161.7 307.095 161.749 307.789 161.543C308.114 161.446 308.386 161.255 308.928 160.875C309.012 160.817 309.432 160.516 309.915 160.027C310.231 159.708 310.337 159.554 310.367 159.367C310.401 159.159 310.354 158.958 310.267 158.778C310.309 158.735 310.341 158.682 310.358 158.617C310.431 158.344 310.193 158.198 310.065 158.117C310 158.077 309.918 158.028 309.841 157.96C309.72 157.853 309.681 157.76 309.622 157.62C309.565 157.486 309.495 157.32 309.343 157.137C309.043 156.775 308.665 156.641 308.541 156.596C307.888 156.361 307.321 156.574 306.664 156.82C306.532 156.87 306.066 157.061 305.571 157.437C305.214 157.709 305.111 157.875 305.054 158.013C304.936 158.297 304.974 158.544 305.105 159.126C305.24 159.734 305.309 160.039 305.397 160.262C305.602 160.779 305.731 161.104 306.041 161.351Z" fill="#F2F2F2"/>
<path d="M207.564 177.792L202.224 176.515L204.451 154.625L212.333 156.51L207.564 177.792Z" fill="#A0616A"/>
<path d="M189.295 173.292C189.064 173.542 188.767 174.454 188.692 174.791C188.46 175.825 189.084 176.858 190.085 177.097L206.624 181.052C207.307 181.215 207.989 180.776 208.147 180.07L208.306 179.359C208.306 179.359 209.603 177.416 208.509 174.378C208.509 174.378 205.953 175.941 203.549 171.961L203.013 170.014L195.205 173.463L191.398 173.048C190.566 172.957 189.874 172.667 189.295 173.292Z" fill="#2F2E41"/>
<path d="M263.605 165.994L259.635 169.899L243.165 155.938L249.024 150.174L263.605 165.994Z" fill="#A0616A"/>
<path d="M249.918 179.282C249.993 179.618 250.567 180.377 250.798 180.627C251.506 181.396 252.684 181.425 253.428 180.693L265.722 168.598C266.23 168.099 266.249 167.269 265.766 166.744L265.278 166.215C265.278 166.215 264.422 164.028 261.364 163.301C261.364 163.301 261.222 166.366 256.682 166.251L254.813 165.642L253.306 174.276L250.878 177.333C250.346 178.002 249.731 178.438 249.918 179.282Z" fill="#2F2E41"/>
<path d="M286.148 125.02L279.13 137.022L238.229 134.521L249.12 120.02L286.148 125.02Z" fill="#F2F2F2"/>
<path d="M273.927 181.152C274.165 181.152 274.373 180.971 274.406 180.72L286.628 88.502C286.664 88.2283 286.479 87.9761 286.214 87.9387C285.949 87.8992 285.705 88.0926 285.669 88.3663L273.447 180.585C273.411 180.858 273.596 181.11 273.861 181.148C273.883 181.151 273.905 181.152 273.927 181.152Z" fill="#F2F2F2"/>
<path d="M286.148 181.269C286.415 181.269 286.632 181.045 286.632 180.769V88.4512C286.632 88.1751 286.415 87.9512 286.148 87.9512C285.881 87.9512 285.664 88.1751 285.664 88.4512V180.769C285.664 181.045 285.881 181.269 286.148 181.269Z" fill="#F2F2F2"/>
<path d="M224.798 180.903C225.003 180.903 225.194 180.766 225.259 180.553L254.18 85.5839C254.26 85.3204 254.118 85.0396 253.863 84.9566C253.608 84.8741 253.337 85.0204 253.256 85.2836L224.336 180.252C224.256 180.516 224.397 180.796 224.652 180.879C224.701 180.895 224.75 180.903 224.798 180.903Z" fill="#F2F2F2"/>
<path d="M233.631 181.02C233.847 181.02 234.044 180.869 234.1 180.643L254.187 96.8265C254.253 96.5589 254.096 96.2866 253.837 96.2185C253.577 96.1509 253.314 96.3123 253.249 96.5799L233.162 180.396C233.096 180.664 233.252 180.936 233.511 181.004C233.551 181.015 233.592 181.02 233.631 181.02Z" fill="#F2F2F2"/>
<path d="M286.148 89.9232L252.629 89.3906L246.458 125.771H285.664L286.148 89.9232Z" fill="#F2F2F2"/>
<path d="M273.267 114.256C273.267 114.256 279.096 129.194 268.316 132.601C257.536 136.009 242.001 140.822 242.001 140.822L259.862 158.683L251.056 164.497C251.056 164.497 218.572 141.509 218.572 136.009C218.572 130.508 245.194 116.256 245.194 116.256L259.862 110.842L273.267 114.256Z" fill="#2F2E41"/>
<path d="M239.333 110.842C239.333 110.842 209.408 113.112 207.153 119.122C204.898 125.132 200.396 156.202 200.396 156.202L216.126 159.085L220.819 132.601L263.881 116.769L239.333 110.842Z" fill="#2F2E41"/>
<path d="M223.367 76.7011L231.269 66.7207L239.997 72.6348C239.997 72.6348 272.888 94.7119 274.248 115.428C274.248 115.428 261.015 128.579 244.034 112.061L231.728 108.69L223.367 76.7011Z" fill="#CCCCCC"/>
<path d="M188.272 118.212C185.647 119.233 183.009 118.662 182.381 116.936C181.752 115.21 183.37 112.984 185.995 111.963C187.144 111.516 188.295 111.375 189.279 111.501L200.454 107.32L202.241 112.78L191.036 116.322C190.377 117.088 189.421 117.766 188.272 118.212Z" fill="#A0616A"/>
<path d="M226.005 77.5681L223.367 76.7012L215.823 100.513L190.028 110.289L191.676 116.853L221.009 109.621L232.331 98.2146L226.005 77.5681Z" fill="#CCCCCC"/>
<path d="M221.185 69.599C226.353 69.599 230.542 65.2706 230.542 59.9313C230.542 54.592 226.353 50.2637 221.185 50.2637C216.017 50.2637 211.827 54.592 211.827 59.9313C211.827 65.2706 216.017 69.599 221.185 69.599Z" fill="#A0616A"/>
<path d="M230.453 52.6454C230.453 52.6454 228.019 44.5248 219.946 45.6095C219.946 45.6095 218.314 47.2537 216.936 46.9979C215.557 46.742 212.972 50.9908 212.282 50.9819C211.591 50.9729 210.431 51.6716 211.582 51.6865C212.734 51.7015 213.988 51.123 212.384 52.0538C210.78 52.9846 209.714 53.8034 210.86 54.2942C212.005 54.7849 212.224 53.4792 210.737 54.8873C209.251 56.2955 210.155 55.4745 210.837 56.1971C211.519 56.9197 210.446 60.8575 210.446 60.8575C210.446 60.8575 210.356 57.8563 214.27 57.9071C218.184 57.958 220.705 58.9424 221.871 57.7679C223.037 56.5935 224.748 58.4066 225.825 59.5474C226.901 60.6882 227.825 60.4623 227.825 60.4623L226.838 65.9214C226.838 65.9214 230.871 65.6254 231.128 63.4791C231.384 61.3328 230.375 59.068 231.075 58.3633C231.774 57.6587 230.453 52.6454 230.453 52.6454Z" fill="#2F2E41"/>
<path d="M183.486 116.283C195.689 116.283 205.581 106.063 205.581 93.4557C205.581 80.8488 195.689 70.6289 183.486 70.6289C171.284 70.6289 161.392 80.8488 161.392 93.4557C161.392 106.063 171.284 116.283 183.486 116.283Z" fill="#414141"/>
<path d="M184.631 93.5653L182.438 93.9473L184.548 106.873L186.741 106.491L184.631 93.5653Z" fill="white"/>
<path d="M176.453 101.533L183.992 96.5538L192.694 98.7034L181.328 80.2305L176.453 101.533Z" fill="white"/>
<path d="M189.984 105.23C187.18 105.232 184.905 103.738 184.904 101.894C184.903 100.05 187.176 98.5543 189.981 98.5527C191.208 98.5521 192.334 98.8379 193.213 99.3141L205.096 99.4615L204.911 105.222L193.215 104.465C192.338 104.942 191.212 105.229 189.984 105.23Z" fill="#A0616A"/>
<path d="M235.157 76.8086C240.897 83.2912 241.602 92.9889 236.863 100.285L227.347 109.278L196.835 106.287L197.478 98.9078L219.043 97.7093L235.157 76.8086Z" fill="#CCCCCC"/>
</g>
<defs>
<clipPath id="clip0_2_10968">
<rect width="342" height="182" fill="white"/>
</clipPath>
</defs>
</svg>
