<svg width="168" height="140" viewBox="0 0 168 140" fill="none" xmlns="http://www.w3.org/2000/svg">
<g clip-path="url(#clip0_221_76947)">
<path d="M154.246 137.303L151.752 137.303L150.566 127.678H154.246L154.246 137.303Z" fill="#9E616A"/>
<path d="M154.881 139.722L146.842 139.722V139.62C146.842 138.79 147.172 137.993 147.758 137.406C148.345 136.818 149.141 136.488 149.971 136.488L154.881 136.488L154.881 139.722Z" fill="#2F2E41"/>
<path d="M144.687 137.303L142.194 137.303L141.008 127.678H144.688L144.687 137.303Z" fill="#9E616A"/>
<path d="M145.323 139.722L137.283 139.722V139.62C137.283 138.79 137.613 137.993 138.2 137.406C138.787 136.818 139.582 136.488 140.412 136.488L145.323 136.488L145.323 139.722Z" fill="#2F2E41"/>
<path d="M36.9707 139.351V62.0414C36.9707 61.5652 37.1597 61.1086 37.4961 60.7719C37.8325 60.4352 38.2887 60.2461 38.7644 60.2461H46.769C47.2447 60.2461 47.701 60.4352 48.0374 60.7719C48.3737 61.1086 48.5627 61.5652 48.5627 62.0414V139.552L36.9707 139.351Z" fill="#3F3D56"/>
<path d="M63.4082 139.593V78.1215C63.4082 77.6453 63.5972 77.1887 63.9336 76.852C64.27 76.5153 64.7262 76.3262 65.2019 76.3262H73.2065C73.6822 76.3262 74.1385 76.5153 74.4749 76.852C74.8112 77.1887 75.0002 77.6453 75.0002 78.1215V139.46L63.4082 139.593Z" fill="#3F3D56"/>
<path d="M16.4302 66.5605C16.3124 66.5605 16.1971 66.5263 16.0983 66.4621C15.9995 66.3979 15.9213 66.3065 15.8733 66.1988C15.8253 66.0911 15.8094 65.9718 15.8277 65.8553C15.8459 65.7388 15.8975 65.6301 15.9762 65.5423L42.7406 35.6634L69.0806 50.4673L95.5773 4.77148L122.57 27.008C122.632 27.0589 122.683 27.1216 122.721 27.1924C122.759 27.2632 122.782 27.3407 122.79 27.4206C122.798 27.5004 122.79 27.581 122.766 27.6578C122.743 27.7345 122.705 27.8059 122.654 27.8679C122.603 27.9298 122.54 27.9811 122.469 28.0188C122.399 28.0565 122.321 28.0799 122.241 28.0876C122.162 28.0953 122.081 28.0872 122.004 28.0638C121.928 28.0404 121.856 28.002 121.795 27.951L95.9113 6.62845L69.5321 52.1217L42.9961 37.2077L16.8847 66.3575C16.8275 66.4214 16.7575 66.4726 16.6792 66.5076C16.6008 66.5426 16.516 66.5606 16.4302 66.5605Z" fill="#3F3D56"/>
<path d="M16.3291 71.6486C19.474 71.6486 22.0234 69.097 22.0234 65.9493C22.0234 62.8017 19.474 60.25 16.3291 60.25C13.1842 60.25 10.6348 62.8017 10.6348 65.9493C10.6348 69.097 13.1842 71.6486 16.3291 71.6486Z" fill="#414141"/>
<path d="M42.7666 42.135C45.9115 42.135 48.4609 39.5833 48.4609 36.4356C48.4609 33.288 45.9115 30.7363 42.7666 30.7363C39.6217 30.7363 37.0723 33.288 37.0723 36.4356C37.0723 39.5833 39.6217 42.135 42.7666 42.135Z" fill="#CCCCCC"/>
<path d="M69.2041 56.9924C72.349 56.9924 74.8984 54.4407 74.8984 51.2931C74.8984 48.1454 72.349 45.5938 69.2041 45.5938C66.0592 45.5938 63.5098 48.1454 63.5098 51.2931C63.5098 54.4407 66.0592 56.9924 69.2041 56.9924Z" fill="#E6E6E6"/>
<path d="M95.6416 11.3986C98.7865 11.3986 101.336 8.84696 101.336 5.69931C101.336 2.55167 98.7865 0 95.6416 0C92.4967 0 89.9473 2.55167 89.9473 5.69931C89.9473 8.84696 92.4967 11.3986 95.6416 11.3986Z" fill="#414141"/>
<path d="M146.485 53.8459C149.63 53.8459 152.18 51.2942 152.18 48.1466C152.18 44.9989 149.63 42.4473 146.485 42.4473C143.34 42.4473 140.791 44.9989 140.791 48.1466C140.791 51.2942 143.34 53.8459 146.485 53.8459Z" fill="#414141"/>
<path d="M144.472 92.5433C146.603 92.8002 152.053 90.8542 152.349 93.8147C155.154 102.08 155.07 133.762 155.07 133.762L150.8 133.966C150.8 133.966 147.387 108.792 145.773 103.407C144.964 109.952 145.105 134.983 145.105 134.983L141.241 135.187C141.241 135.187 137.775 113.872 137.756 107.616C137.334 103.033 138.367 96.2425 137.925 91.8125C140.039 92.4829 142.263 92.7312 144.472 92.5433Z" fill="#3F3D56"/>
<path d="M116.285 139.319V50.2157C116.285 49.073 117.088 48.1465 118.079 48.1465H126.083C127.074 48.1465 127.877 49.0728 127.877 50.2157V139.552L116.285 139.319Z" fill="#3F3D56"/>
<path d="M137.221 68.5661C136.366 66.8171 135.322 65.1673 134.107 63.6464C133.853 63.3494 133.622 63.0337 133.416 62.702C132.979 61.9427 132.848 61.0512 132.572 60.2207C131.799 57.8921 129.871 56.0215 129.401 53.6136C129.23 52.7383 127.787 55.2822 128.167 56.3676C128.844 58.3318 128.931 60.4121 129.794 62.3091C130.656 64.2062 131.669 66.0259 132.413 67.9657C132.836 69.0669 133.174 70.2047 133.794 71.2224C134.414 72.2402 135.382 73.093 136.552 73.2457C136.544 72.5079 136.656 71.7737 136.883 71.0718C137.137 70.2698 137.589 69.3254 137.221 68.5661Z" fill="#9E616A"/>
<path d="M150.015 69.8855C149.963 68.4462 150.188 67.0103 150.676 65.6558C150.863 65.1367 151.083 64.6096 151.065 64.0579C151.038 63.545 150.794 63.0748 150.573 62.6107C149.808 61.0129 149.271 59.3194 148.742 57.6299L147.725 54.4444C147.394 54.2011 149.33 54.1167 149.743 54.6887C151.093 56.5654 152.116 58.7209 153.186 60.7707C153.459 61.2591 153.691 61.769 153.881 62.2952C154.143 63.1481 154.266 64.0373 154.248 64.9291C154.248 66.5962 154.028 68.2571 153.8 69.9099C153.656 70.946 153.467 72.0736 152.684 72.7596C151.87 71.7174 151.053 70.6997 150.015 69.8855Z" fill="#9E616A"/>
<path d="M144.638 68.2363C146.968 68.2363 148.858 66.3453 148.858 64.0127C148.858 61.68 146.968 59.7891 144.638 59.7891C142.307 59.7891 140.418 61.68 140.418 64.0127C140.418 66.3453 142.307 68.2363 144.638 68.2363Z" fill="#9E616A"/>
<path d="M141.208 59.7979C141.16 59.6697 141.15 59.5308 141.177 59.3969C141.204 59.263 141.268 59.1394 141.362 59.04C141.467 58.9569 141.607 58.9259 141.72 58.8466C141.881 58.7115 142.012 58.545 142.107 58.3574C142.395 57.9537 142.817 57.6651 143.297 57.5431C143.778 57.421 144.286 57.4732 144.732 57.6905C145.429 58.0558 145.85 58.7873 146.471 59.2798C146.786 59.5351 147.151 59.7245 147.467 59.9797C148.102 60.5283 148.553 61.2585 148.76 62.0717C148.965 62.8795 149.086 63.7067 149.118 64.5397C149.151 64.7896 149.141 65.0433 149.089 65.2899C149.025 65.4968 148.929 65.6925 148.805 65.87C148.168 66.8367 147.328 67.7146 146.275 68.2135C145.222 68.7123 143.941 68.7935 142.903 68.2715C142.798 68.2292 142.708 68.1573 142.644 68.0646C142.585 67.9234 142.571 67.7675 142.603 67.618C142.66 67.0271 142.543 66.4325 142.267 65.9069C142.074 65.5203 141.784 65.1876 141.63 64.7875C141.486 64.3395 141.424 63.8693 141.448 63.3994C141.43 62.1818 141.512 60.9696 141.208 59.7979Z" fill="#2D293D"/>
<path d="M10.5332 139.441V96.4228C10.5332 95.8712 11.3363 95.4238 12.3269 95.4238H20.3315C21.3221 95.4238 22.1252 95.8716 22.1252 96.4228V139.553L10.5332 139.441Z" fill="#3F3D56"/>
<path d="M167.297 140.001H0.703369C0.649432 140.001 0.597704 139.979 0.559565 139.941C0.521426 139.903 0.5 139.851 0.5 139.797C0.5 139.743 0.521426 139.692 0.559565 139.653C0.597704 139.615 0.649432 139.594 0.703369 139.594H167.297C167.351 139.594 167.402 139.615 167.44 139.653C167.479 139.692 167.5 139.743 167.5 139.797C167.5 139.851 167.479 139.903 167.44 139.941C167.402 139.979 167.351 140.001 167.297 140.001H167.297Z" fill="#E6E6E6"/>
<path d="M89.8457 139.288V38.1723C89.8457 36.8755 90.6488 35.8242 91.6394 35.8242H99.644C100.635 35.8242 101.438 36.8755 101.438 38.1723V139.552L89.8457 139.288Z" fill="#414141"/>
<path d="M128.049 55.8455C129.06 55.8455 129.879 55.0253 129.879 54.0136C129.879 53.0018 129.06 52.1816 128.049 52.1816C127.038 52.1816 126.219 53.0018 126.219 54.0136C126.219 55.0253 127.038 55.8455 128.049 55.8455Z" fill="#A0616A"/>
<path d="M148.387 55.033C149.398 55.033 150.217 54.2128 150.217 53.2011C150.217 52.1893 149.398 51.3691 148.387 51.3691C147.376 51.3691 146.557 52.1893 146.557 53.2011C146.557 54.2128 147.376 55.033 148.387 55.033Z" fill="#A0616A"/>
<path d="M152.835 75.8778C153.013 75.7142 154.469 67.1917 154.461 66.9996C154.438 65.9496 151.237 64.7504 150.597 65.1677C149.992 65.5614 148.94 70.0781 148.263 70.9007L147.546 69.6457H141.852L141.507 70.2873C140.76 69.8367 140.088 69.4213 139.848 69.2839C139.765 69.228 139.676 69.1839 139.581 69.1526C138.989 69.0202 138.434 68.7589 137.954 68.3873C137.487 68.027 135.316 64.2538 134.734 64.3535C134.077 64.4634 131.862 66.3808 131.887 68.2209C132.166 68.2149 135.794 75.4769 135.845 75.7475C136.124 76.8915 137.044 93.5742 137.341 94.3517C138.709 94.2194 137.629 93.9833 138.953 94.3517C140.378 94.7486 141.883 94.3192 143.354 94.1604C143.966 94.0997 144.581 94.0725 145.196 94.079C147.433 94.0891 150.626 94.2133 152.792 94.769C152.804 93.3482 151.558 90.2747 151.096 88.9333C151.035 88.5324 151.038 88.1245 151.102 87.7242C151.161 87.2337 152.352 76.4202 152.835 75.8778Z" fill="#E6E6E6"/>
</g>
<defs>
<clipPath id="clip0_221_76947">
<rect width="167" height="140" fill="white" transform="translate(0.5)"/>
</clipPath>
</defs>
</svg>
