<svg width="20" height="21" viewBox="0 0 20 21" fill="none" xmlns="http://www.w3.org/2000/svg">
<path d="M5 8.83203H18.3333" stroke="#292D32" stroke-miterlimit="10" stroke-linecap="round" stroke-linejoin="round"/>
<path d="M9.62487 17.5841H5.36655C2.40821 17.5841 1.6582 16.8508 1.6582 13.9258V7.07579C1.6582 4.42579 2.27489 3.57578 4.59989 3.44245C4.83323 3.43412 5.09155 3.42578 5.36655 3.42578H14.6249C17.5832 3.42578 18.3332 4.15911 18.3332 7.08411V10.7591" stroke="#292D32" stroke-linecap="round" stroke-linejoin="round"/>
<path d="M5 13.832H8.33333" stroke="#292D32" stroke-miterlimit="10" stroke-linecap="round" stroke-linejoin="round"/>
<path d="M18.3337 15.5013C18.3337 16.1263 18.1586 16.718 17.8503 17.218C17.2753 18.1846 16.217 18.8346 15.0003 18.8346C13.7837 18.8346 12.7253 18.1846 12.1503 17.218C11.842 16.718 11.667 16.1263 11.667 15.5013C11.667 13.6596 13.1587 12.168 15.0003 12.168C16.842 12.168 18.3337 13.6596 18.3337 15.5013Z" stroke="#292D32" stroke-miterlimit="10" stroke-linecap="round" stroke-linejoin="round"/>
<path d="M13.7002 15.5003L14.5252 16.3253L16.3002 14.6836" stroke="#292D32" stroke-linecap="round" stroke-linejoin="round"/>
</svg>
