<svg width="424" height="256" viewBox="0 0 424 256" fill="none" xmlns="http://www.w3.org/2000/svg">
<line x1="38.0839" y1="212.635" x2="424" y2="212.635" stroke="#F6F6F6" stroke-width="0.73"/>
<line x1="38.0839" y1="178.635" x2="424" y2="178.635" stroke="#F6F6F6" stroke-width="0.73"/>
<line x1="38.0839" y1="144.635" x2="424" y2="144.635" stroke="#F6F6F6" stroke-width="0.73"/>
<line x1="38.0839" y1="110.635" x2="424" y2="110.635" stroke="#F6F6F6" stroke-width="0.73"/>
<line x1="38.0839" y1="76.635" x2="424" y2="76.635" stroke="#F6F6F6" stroke-width="0.73"/>
<line x1="38.0839" y1="42.635" x2="424" y2="42.635" stroke="#F6F6F6" stroke-width="0.73"/>
<line x1="38.0839" y1="8.635" x2="424" y2="8.635" stroke="#F6F6F6" stroke-width="0.73"/>
<g style="mix-blend-mode:multiply" opacity="0.33">
<path d="M58.5583 121.647C52.1172 134.89 41.3785 138.75 36.8143 139.024V222H423.718V95.621C418.236 98.051 405.3 108.986 397.415 133.289C387.559 163.667 372.705 144.385 366.736 138.564C360.767 132.743 350.217 130.924 343.692 131.834C337.168 132.743 326.895 134.744 322.037 123.466C317.178 112.188 312.273 104.854 298.993 107.64C287.193 108.186 282.057 108.004 276.504 102.547C270.951 97.0899 254.432 84.3566 242.632 100C230.833 115.644 218.616 122.738 205.845 101.638C193.074 80.5366 179.47 83.0832 174.194 89.9956C168.919 96.908 165.446 117.978 152.734 124.172C141.931 126.985 135.62 131.612 124.22 147.114C109.505 167.123 100.62 149.479 93.8182 128.014C87.0161 106.549 66.6097 105.094 58.5583 121.647Z" fill="url(#paint0_linear_450_56775)"/>
</g>
<path d="M37.4453 138.883C41.9948 138.609 52.699 134.749 59.1193 121.506C67.1448 104.953 87.4855 106.408 94.2658 127.873C101.046 149.337 109.902 166.982 124.569 146.973C139.237 126.963 140.573 129.508 153.212 124.416C165.973 119.276 166.266 101.982 175.348 90.0427C180.607 83.1303 193.202 80.3954 205.932 101.496C218.662 122.597 230.839 115.503 242.601 99.8593C254.363 84.2154 270.829 96.9488 276.364 102.406C281.899 107.863 288.517 109.557 298.78 107.499C311.567 104.936 316.907 112.047 321.75 123.325C326.593 134.603 336.832 132.602 343.336 131.693C349.839 130.783 360.356 132.602 366.306 138.423C372.256 144.244 387.062 163.526 396.886 133.148C404.746 108.845 417.639 97.9098 423.104 95.4799" stroke="#414141" stroke-width="1.52316" stroke-linecap="round" stroke-linejoin="round"/>
<path d="M10.6358 213.31C10.6358 212.163 10.8224 211.27 11.1958 210.63C11.5691 209.983 12.2224 209.66 13.1558 209.66C14.0824 209.66 14.7324 209.983 15.1058 210.63C15.4791 211.27 15.6658 212.163 15.6658 213.31C15.6658 214.477 15.4791 215.383 15.1058 216.03C14.7324 216.677 14.0824 217 13.1558 217C12.2224 217 11.5691 216.677 11.1958 216.03C10.8224 215.383 10.6358 214.477 10.6358 213.31ZM14.7658 213.31C14.7658 212.73 14.7258 212.24 14.6458 211.84C14.5724 211.433 14.4158 211.107 14.1758 210.86C13.9424 210.613 13.6024 210.49 13.1558 210.49C12.7024 210.49 12.3558 210.613 12.1158 210.86C11.8824 211.107 11.7258 211.433 11.6458 211.84C11.5724 212.24 11.5358 212.73 11.5358 213.31C11.5358 213.91 11.5724 214.413 11.6458 214.82C11.7258 215.227 11.8824 215.553 12.1158 215.8C12.3558 216.047 12.7024 216.17 13.1558 216.17C13.6024 216.17 13.9424 216.047 14.1758 215.8C14.4158 215.553 14.5724 215.227 14.6458 214.82C14.7258 214.413 14.7658 213.91 14.7658 213.31Z" fill="#615E83"/>
<path d="M7.10383 176.6V175.77H8.98383V183H8.06383V176.6H7.10383ZM10.547 179.31C10.547 178.163 10.7336 177.27 11.107 176.63C11.4803 175.983 12.1336 175.66 13.067 175.66C13.9936 175.66 14.6436 175.983 15.017 176.63C15.3903 177.27 15.577 178.163 15.577 179.31C15.577 180.477 15.3903 181.383 15.017 182.03C14.6436 182.677 13.9936 183 13.067 183C12.1336 183 11.4803 182.677 11.107 182.03C10.7336 181.383 10.547 180.477 10.547 179.31ZM14.677 179.31C14.677 178.73 14.637 178.24 14.557 177.84C14.4836 177.433 14.327 177.107 14.087 176.86C13.8536 176.613 13.5136 176.49 13.067 176.49C12.6136 176.49 12.267 176.613 12.027 176.86C11.7936 177.107 11.637 177.433 11.557 177.84C11.4836 178.24 11.447 178.73 11.447 179.31C11.447 179.91 11.4836 180.413 11.557 180.82C11.637 181.227 11.7936 181.553 12.027 181.8C12.267 182.047 12.6136 182.17 13.067 182.17C13.5136 182.17 13.8536 182.047 14.087 181.8C14.327 181.553 14.4836 181.227 14.557 180.82C14.637 180.413 14.677 179.91 14.677 179.31Z" fill="#615E83"/>
<path d="M4.59571 148.27C5.44238 147.59 6.10571 147.033 6.58571 146.6C7.06571 146.16 7.46904 145.703 7.79571 145.23C8.12904 144.75 8.29571 144.28 8.29571 143.82C8.29571 143.387 8.18904 143.047 7.97571 142.8C7.76904 142.547 7.43238 142.42 6.96571 142.42C6.51238 142.42 6.15904 142.563 5.90571 142.85C5.65904 143.13 5.52571 143.507 5.50571 143.98H4.62571C4.65238 143.233 4.87904 142.657 5.30571 142.25C5.73238 141.843 6.28238 141.64 6.95571 141.64C7.64238 141.64 8.18571 141.83 8.58571 142.21C8.99238 142.59 9.19571 143.113 9.19571 143.78C9.19571 144.333 9.02904 144.873 8.69571 145.4C8.36904 145.92 7.99571 146.38 7.57571 146.78C7.15571 147.173 6.61904 147.633 5.96571 148.16H9.40571V148.92H4.59571V148.27ZM10.4577 145.31C10.4577 144.163 10.6443 143.27 11.0177 142.63C11.391 141.983 12.0443 141.66 12.9777 141.66C13.9043 141.66 14.5543 141.983 14.9277 142.63C15.301 143.27 15.4877 144.163 15.4877 145.31C15.4877 146.477 15.301 147.383 14.9277 148.03C14.5543 148.677 13.9043 149 12.9777 149C12.0443 149 11.391 148.677 11.0177 148.03C10.6443 147.383 10.4577 146.477 10.4577 145.31ZM14.5877 145.31C14.5877 144.73 14.5477 144.24 14.4677 143.84C14.3943 143.433 14.2377 143.107 13.9977 142.86C13.7643 142.613 13.4243 142.49 12.9777 142.49C12.5243 142.49 12.1777 142.613 11.9377 142.86C11.7043 143.107 11.5477 143.433 11.4677 143.84C11.3943 144.24 11.3577 144.73 11.3577 145.31C11.3577 145.91 11.3943 146.413 11.4677 146.82C11.5477 147.227 11.7043 147.553 11.9377 147.8C12.1777 148.047 12.5243 148.17 12.9777 148.17C13.4243 148.17 13.7643 148.047 13.9977 147.8C14.2377 147.553 14.3943 147.227 14.4677 146.82C14.5477 146.413 14.5877 145.91 14.5877 145.31Z" fill="#615E83"/>
<path d="M4.54899 109.59C4.59566 108.977 4.83232 108.497 5.25899 108.15C5.68566 107.803 6.23899 107.63 6.91899 107.63C7.37232 107.63 7.76232 107.713 8.08899 107.88C8.42232 108.04 8.67232 108.26 8.83899 108.54C9.01232 108.82 9.09899 109.137 9.09899 109.49C9.09899 109.903 8.97899 110.26 8.73899 110.56C8.50566 110.86 8.19899 111.053 7.81899 111.14V111.19C8.25232 111.297 8.59566 111.507 8.84899 111.82C9.10232 112.133 9.22899 112.543 9.22899 113.05C9.22899 113.43 9.14232 113.773 8.96899 114.08C8.79566 114.38 8.53566 114.617 8.18899 114.79C7.84232 114.963 7.42566 115.05 6.93899 115.05C6.23232 115.05 5.65232 114.867 5.19899 114.5C4.74566 114.127 4.49232 113.6 4.43899 112.92H5.31899C5.36566 113.32 5.52899 113.647 5.80899 113.9C6.08899 114.153 6.46232 114.28 6.92899 114.28C7.39566 114.28 7.74899 114.16 7.98899 113.92C8.23566 113.673 8.35899 113.357 8.35899 112.97C8.35899 112.47 8.19232 112.11 7.85899 111.89C7.52566 111.67 7.02232 111.56 6.34899 111.56H6.11899V110.8H6.35899C6.97232 110.793 7.43566 110.693 7.74899 110.5C8.06232 110.3 8.21899 109.993 8.21899 109.58C8.21899 109.227 8.10232 108.943 7.86899 108.73C7.64232 108.517 7.31566 108.41 6.88899 108.41C6.47566 108.41 6.14232 108.517 5.88899 108.73C5.63566 108.943 5.48566 109.23 5.43899 109.59H4.54899ZM10.4577 111.31C10.4577 110.163 10.6443 109.27 11.0177 108.63C11.391 107.983 12.0443 107.66 12.9777 107.66C13.9043 107.66 14.5543 107.983 14.9277 108.63C15.301 109.27 15.4877 110.163 15.4877 111.31C15.4877 112.477 15.301 113.383 14.9277 114.03C14.5543 114.677 13.9043 115 12.9777 115C12.0443 115 11.391 114.677 11.0177 114.03C10.6443 113.383 10.4577 112.477 10.4577 111.31ZM14.5877 111.31C14.5877 110.73 14.5477 110.24 14.4677 109.84C14.3943 109.433 14.2377 109.107 13.9977 108.86C13.7643 108.613 13.4243 108.49 12.9777 108.49C12.5243 108.49 12.1777 108.613 11.9377 108.86C11.7043 109.107 11.5477 109.433 11.4677 109.84C11.3943 110.24 11.3577 110.73 11.3577 111.31C11.3577 111.91 11.3943 112.413 11.4677 112.82C11.5477 113.227 11.7043 113.553 11.9377 113.8C12.1777 114.047 12.5243 114.17 12.9777 114.17C13.4243 114.17 13.7643 114.047 13.9977 113.8C14.2377 113.553 14.3943 113.227 14.4677 112.82C14.5477 112.413 14.5877 111.91 14.5877 111.31Z" fill="#615E83"/>
<path d="M3.9486 79.39V78.7L7.4586 73.84H8.5486V78.6H9.5486V79.39H8.5486V81H7.6486V79.39H3.9486ZM7.6886 74.79L4.9986 78.6H7.6886V74.79ZM10.4577 77.31C10.4577 76.1633 10.6443 75.27 11.0177 74.63C11.391 73.9833 12.0443 73.66 12.9777 73.66C13.9043 73.66 14.5543 73.9833 14.9277 74.63C15.301 75.27 15.4877 76.1633 15.4877 77.31C15.4877 78.4767 15.301 79.3833 14.9277 80.03C14.5543 80.6767 13.9043 81 12.9777 81C12.0443 81 11.391 80.6767 11.0177 80.03C10.6443 79.3833 10.4577 78.4767 10.4577 77.31ZM14.5877 77.31C14.5877 76.73 14.5477 76.24 14.4677 75.84C14.3943 75.4333 14.2377 75.1067 13.9977 74.86C13.7643 74.6133 13.4243 74.49 12.9777 74.49C12.5243 74.49 12.1777 74.6133 11.9377 74.86C11.7043 75.1067 11.5477 75.4333 11.4677 75.84C11.3943 76.24 11.3577 76.73 11.3577 77.31C11.3577 77.91 11.3943 78.4133 11.4677 78.82C11.5477 79.2267 11.7043 79.5533 11.9377 79.8C12.1777 80.0467 12.5243 80.17 12.9777 80.17C13.4243 80.17 13.7643 80.0467 13.9977 79.8C14.2377 79.5533 14.3943 79.2267 14.4677 78.82C14.5477 78.4133 14.5877 77.91 14.5877 77.31Z" fill="#615E83"/>
<path d="M8.78836 40.56H5.27836V42.84C5.4317 42.6267 5.65836 42.4533 5.95836 42.32C6.25837 42.18 6.5817 42.11 6.92836 42.11C7.4817 42.11 7.9317 42.2267 8.27837 42.46C8.62503 42.6867 8.8717 42.9833 9.01836 43.35C9.1717 43.71 9.24836 44.0933 9.24836 44.5C9.24836 44.98 9.15837 45.41 8.97837 45.79C8.79837 46.17 8.5217 46.47 8.14837 46.69C7.7817 46.91 7.32503 47.02 6.77837 47.02C6.07837 47.02 5.5117 46.84 5.07836 46.48C4.64503 46.12 4.3817 45.64 4.28836 45.04H5.17836C5.26503 45.42 5.44836 45.7167 5.72836 45.93C6.00836 46.1433 6.3617 46.25 6.78837 46.25C7.31503 46.25 7.7117 46.0933 7.97837 45.78C8.24503 45.46 8.37837 45.04 8.37837 44.52C8.37837 44 8.24503 43.6 7.97837 43.32C7.7117 43.0333 7.31836 42.89 6.79836 42.89C6.44503 42.89 6.13503 42.9767 5.86836 43.15C5.60836 43.3167 5.41836 43.5467 5.29836 43.84H4.43836V39.76H8.78836V40.56ZM10.4577 43.31C10.4577 42.1633 10.6443 41.27 11.0177 40.63C11.391 39.9833 12.0443 39.66 12.9777 39.66C13.9043 39.66 14.5543 39.9833 14.9277 40.63C15.301 41.27 15.4877 42.1633 15.4877 43.31C15.4877 44.4767 15.301 45.3833 14.9277 46.03C14.5543 46.6767 13.9043 47 12.9777 47C12.0443 47 11.391 46.6767 11.0177 46.03C10.6443 45.3833 10.4577 44.4767 10.4577 43.31ZM14.5877 43.31C14.5877 42.73 14.5477 42.24 14.4677 41.84C14.3943 41.4333 14.2377 41.1067 13.9977 40.86C13.7643 40.6133 13.4243 40.49 12.9777 40.49C12.5243 40.49 12.1777 40.6133 11.9377 40.86C11.7043 41.1067 11.5477 41.4333 11.4677 41.84C11.3943 42.24 11.3577 42.73 11.3577 43.31C11.3577 43.91 11.3943 44.4133 11.4677 44.82C11.5477 45.2267 11.7043 45.5533 11.9377 45.8C12.1777 46.0467 12.5243 46.17 12.9777 46.17C13.4243 46.17 13.7643 46.0467 13.9977 45.8C14.2377 45.5533 14.3943 45.2267 14.4677 44.82C14.5477 44.4133 14.5877 43.91 14.5877 43.31Z" fill="#615E83"/>
<path d="M8.14001 7.49C7.99334 6.75 7.53667 6.38 6.77001 6.38C6.17667 6.38 5.73334 6.61 5.44001 7.07C5.14667 7.52333 5.00334 8.27333 5.01001 9.32C5.16334 8.97333 5.41667 8.70333 5.77001 8.51C6.13001 8.31 6.53001 8.21 6.97001 8.21C7.65667 8.21 8.20334 8.42333 8.61001 8.85C9.02334 9.27667 9.23001 9.86667 9.23001 10.62C9.23001 11.0733 9.14001 11.48 8.96001 11.84C8.78667 12.2 8.52001 12.4867 8.16001 12.7C7.80667 12.9133 7.37667 13.02 6.87001 13.02C6.18334 13.02 5.64667 12.8667 5.26001 12.56C4.87334 12.2533 4.60334 11.83 4.45001 11.29C4.29667 10.75 4.22001 10.0833 4.22001 9.29C4.22001 6.84333 5.07334 5.62 6.78001 5.62C7.43334 5.62 7.94667 5.79667 8.32001 6.15C8.69334 6.50333 8.91334 6.95 8.98001 7.49H8.14001ZM6.78001 8.98C6.49334 8.98 6.22334 9.04 5.97001 9.16C5.71667 9.27333 5.51001 9.45 5.35001 9.69C5.19667 9.92333 5.12001 10.21 5.12001 10.55C5.12001 11.0567 5.26667 11.47 5.56001 11.79C5.85334 12.1033 6.27334 12.26 6.82001 12.26C7.28667 12.26 7.65667 12.1167 7.93001 11.83C8.21001 11.5367 8.35001 11.1433 8.35001 10.65C8.35001 10.13 8.21667 9.72333 7.95001 9.43C7.68334 9.13 7.29334 8.98 6.78001 8.98ZM10.4577 9.31C10.4577 8.16333 10.6443 7.27 11.0177 6.63C11.391 5.98333 12.0443 5.66 12.9777 5.66C13.9043 5.66 14.5543 5.98333 14.9277 6.63C15.301 7.27 15.4877 8.16333 15.4877 9.31C15.4877 10.4767 15.301 11.3833 14.9277 12.03C14.5543 12.6767 13.9043 13 12.9777 13C12.0443 13 11.391 12.6767 11.0177 12.03C10.6443 11.3833 10.4577 10.4767 10.4577 9.31ZM14.5877 9.31C14.5877 8.73 14.5477 8.24 14.4677 7.84C14.3943 7.43333 14.2377 7.10667 13.9977 6.86C13.7643 6.61333 13.4243 6.49 12.9777 6.49C12.5243 6.49 12.1777 6.61333 11.9377 6.86C11.7043 7.10667 11.5477 7.43333 11.4677 7.84C11.3943 8.24 11.3577 8.73 11.3577 9.31C11.3577 9.91 11.3943 10.4133 11.4677 10.82C11.5477 11.2267 11.7043 11.5533 11.9377 11.8C12.1777 12.0467 12.5243 12.17 12.9777 12.17C13.4243 12.17 13.7643 12.0467 13.9977 11.8C14.2377 11.5533 14.3943 11.2267 14.4677 10.82C14.5477 10.4133 14.5877 9.91 14.5877 9.31Z" fill="#615E83"/>
<path d="M48.7313 242.242V249.452C48.7313 250.255 48.4839 250.899 47.9893 251.384C47.4946 251.86 46.8413 252.098 46.0293 252.098C45.2079 252.098 44.5499 251.855 44.0553 251.37C43.5606 250.875 43.3133 250.203 43.3133 249.354H44.5873C44.5966 249.83 44.7179 250.217 44.9513 250.516C45.1939 250.815 45.5533 250.964 46.0293 250.964C46.5053 250.964 46.8599 250.824 47.0933 250.544C47.3266 250.255 47.4433 249.891 47.4433 249.452V242.242H48.7313ZM57.0091 249.83H52.7531L51.9691 252H50.6251L54.1531 242.298H55.6231L59.1371 252H57.7931L57.0091 249.83ZM56.6451 248.794L54.8811 243.866L53.1171 248.794H56.6451ZM68.3467 252H67.0727L61.9487 244.23V252H60.6747V242.228H61.9487L67.0727 249.984V242.228H68.3467V252Z" fill="#615E83"/>
<path d="M164.316 242.242V243.278H160.074V246.568H163.518V247.604H160.074V252H158.8V242.242H164.316ZM167.129 243.278V246.54H170.685V247.59H167.129V250.95H171.105V252H165.855V242.228H171.105V243.278H167.129ZM177.919 246.974C178.273 247.03 178.595 247.175 178.885 247.408C179.183 247.641 179.417 247.931 179.585 248.276C179.762 248.621 179.851 248.99 179.851 249.382C179.851 249.877 179.725 250.325 179.473 250.726C179.221 251.118 178.852 251.431 178.367 251.664C177.891 251.888 177.326 252 176.673 252H173.033V242.242H176.533C177.195 242.242 177.76 242.354 178.227 242.578C178.693 242.793 179.043 243.087 179.277 243.46C179.51 243.833 179.627 244.253 179.627 244.72C179.627 245.299 179.468 245.779 179.151 246.162C178.843 246.535 178.432 246.806 177.919 246.974ZM174.307 246.456H176.449C177.046 246.456 177.508 246.316 177.835 246.036C178.161 245.756 178.325 245.369 178.325 244.874C178.325 244.379 178.161 243.992 177.835 243.712C177.508 243.432 177.037 243.292 176.421 243.292H174.307V246.456ZM176.561 250.95C177.195 250.95 177.69 250.801 178.045 250.502C178.399 250.203 178.577 249.788 178.577 249.256C178.577 248.715 178.39 248.29 178.017 247.982C177.643 247.665 177.144 247.506 176.519 247.506H174.307V250.95H176.561Z" fill="#615E83"/>
<path d="M280.505 242.312V252H279.231V244.776L276.011 252H275.115L271.881 244.762V252H270.607V242.312H271.979L275.563 250.32L279.147 242.312H280.505ZM288.433 249.83H284.177L283.393 252H282.049L285.577 242.298H287.047L290.561 252H289.217L288.433 249.83ZM288.069 248.794L286.305 243.866L284.541 248.794H288.069ZM297.237 252L294.913 248.01H293.373V252H292.099V242.242H295.249C295.986 242.242 296.607 242.368 297.111 242.62C297.624 242.872 298.007 243.213 298.259 243.642C298.511 244.071 298.637 244.561 298.637 245.112C298.637 245.784 298.441 246.377 298.049 246.89C297.666 247.403 297.087 247.744 296.313 247.912L298.763 252H297.237ZM293.373 246.988H295.249C295.939 246.988 296.457 246.82 296.803 246.484C297.148 246.139 297.321 245.681 297.321 245.112C297.321 244.533 297.148 244.085 296.803 243.768C296.467 243.451 295.949 243.292 295.249 243.292H293.373V246.988Z" fill="#615E83"/>
<path d="M396.47 249.83H392.214L391.43 252H390.086L393.614 242.298H395.084L398.598 252H397.254L396.47 249.83ZM396.106 248.794L394.342 243.866L392.578 248.794H396.106ZM406.659 245.098C406.659 245.91 406.379 246.587 405.819 247.128C405.268 247.66 404.424 247.926 403.285 247.926H401.409V252H400.135V242.242H403.285C404.386 242.242 405.222 242.508 405.791 243.04C406.37 243.572 406.659 244.258 406.659 245.098ZM403.285 246.876C403.994 246.876 404.517 246.722 404.853 246.414C405.189 246.106 405.357 245.667 405.357 245.098C405.357 243.894 404.666 243.292 403.285 243.292H401.409V246.876H403.285ZM413.381 252L411.057 248.01H409.517V252H408.243V242.242H411.393C412.13 242.242 412.751 242.368 413.255 242.62C413.768 242.872 414.151 243.213 414.403 243.642C414.655 244.071 414.781 244.561 414.781 245.112C414.781 245.784 414.585 246.377 414.193 246.89C413.81 247.403 413.231 247.744 412.457 247.912L414.907 252H413.381ZM409.517 246.988H411.393C412.083 246.988 412.601 246.82 412.947 246.484C413.292 246.139 413.465 245.681 413.465 245.112C413.465 244.533 413.292 244.085 412.947 243.768C412.611 243.451 412.093 243.292 411.393 243.292H409.517V246.988Z" fill="#615E83"/>
<defs>
<linearGradient id="paint0_linear_450_56775" x1="230.266" y1="85.0234" x2="230.266" y2="226.622" gradientUnits="userSpaceOnUse">
<stop stop-color="#00A87D"/>
<stop offset="0.46679" stop-color="#CFFFF3"/>
<stop offset="1" stop-color="white"/>
</linearGradient>
</defs>
</svg>
