<svg width="14" height="14" viewBox="0 0 14 14" fill="none" xmlns="http://www.w3.org/2000/svg">
<path d="M0.294922 11.346C0.294922 12.4474 1.13717 13.2896 2.23856 13.2896H11.3089C12.4103 13.2896 13.2525 12.4474 13.2525 11.346V6.16296H0.294922V11.346ZM11.3089 1.62779H10.0131V0.979912C10.0131 0.591183 9.75398 0.332031 9.36525 0.332031C8.97652 0.332031 8.71737 0.591183 8.71737 0.979912V1.62779H4.83009V0.979912C4.83009 0.591183 4.57093 0.332031 4.1822 0.332031C3.79348 0.332031 3.53432 0.591183 3.53432 0.979912V1.62779H2.23856C1.13717 1.62779 0.294922 2.47004 0.294922 3.57143V4.86719H13.2525V3.57143C13.2525 2.47004 12.4103 1.62779 11.3089 1.62779Z" fill="#1E293B"/>
</svg>
