<svg width="19" height="19" viewBox="0 0 19 19" fill="none" xmlns="http://www.w3.org/2000/svg">
<path d="M16.8164 10.6621V12.1621C16.8164 15.9121 15.3164 17.4121 11.5664 17.4121H7.06641C3.31641 17.4121 1.81641 15.9121 1.81641 12.1621V11.0221" stroke="white" stroke-width="1.5" stroke-linecap="round" stroke-linejoin="round"/>
<path d="M8.56641 2.41211H7.06641C3.31641 2.41211 1.81641 3.91211 1.81641 7.66211" stroke="white" stroke-width="1.5" stroke-linecap="round" stroke-linejoin="round"/>
<path d="M15.2638 7.67053L16.0513 6.88303C17.0713 5.86303 17.5513 4.67803 16.0513 3.17803C14.5513 1.67803 13.3663 2.15803 12.3463 3.17803L6.43632 9.08803C6.21132 9.31303 5.98632 9.75553 5.94132 10.078L5.61882 12.3355C5.49882 13.153 6.07632 13.723 6.89382 13.6105L9.15132 13.288C9.46632 13.243 9.90882 13.018 10.1413 12.793L12.5263 10.408L13.0738 9.86053" stroke="white" stroke-width="1.5" stroke-miterlimit="10" stroke-linecap="round" stroke-linejoin="round"/>
<path d="M11.499 4.02539C12.0015 5.81789 13.404 7.22039 15.204 7.73039" stroke="white" stroke-width="1.5" stroke-miterlimit="10" stroke-linecap="round" stroke-linejoin="round"/>
</svg>
