<svg width="19" height="19" viewBox="0 0 19 19" fill="none" xmlns="http://www.w3.org/2000/svg">
<path d="M6.87791 11.4116C6.58541 10.9841 6.42041 10.4666 6.42041 9.91156C6.42041 8.42656 7.62041 7.22656 9.10541 7.22656C10.5904 7.22656 11.7904 8.42656 11.7904 9.91156C11.7904 11.3966 10.5904 12.5966 9.10541 12.5966" stroke="white" stroke-width="1.5" stroke-linecap="round" stroke-linejoin="round"/>
<path d="M13.2754 5.09648C12.0079 4.19648 10.5829 3.70898 9.10535 3.70898C6.45785 3.70898 3.99035 5.26898 2.27285 7.96898C1.59785 9.02648 1.59785 10.804 2.27285 11.8615C3.99035 14.5615 6.45785 16.1215 9.10535 16.1215C11.7529 16.1215 14.2204 14.5615 15.9379 11.8615C16.6129 10.804 16.6129 9.02648 15.9379 7.96898" stroke="white" stroke-width="1.5" stroke-linecap="round" stroke-linejoin="round"/>
</svg>
