<svg width="16" height="16" viewBox="0 0 16 16" fill="none" xmlns="http://www.w3.org/2000/svg">
<path d="M2.79357 2.16406H8.14181C8.5865 2.16406 8.95305 2.53063 8.95305 2.97531V3.86467C8.95305 4.18917 8.74874 4.5918 8.55044 4.79611L6.80778 6.33448C6.56741 6.53879 6.40513 6.94141 6.40513 7.26591V9.0086C6.40513 9.24897 6.24289 9.57347 6.03858 9.69966L5.47371 10.0662C4.9449 10.3907 4.21776 10.0242 4.21776 9.37516V7.22985C4.21776 6.94742 4.05552 6.58086 3.89327 6.37655L2.35491 4.75405C2.15059 4.54973 1.98835 4.18917 1.98835 3.94279V3.01137C1.98234 2.53063 2.34889 2.16406 2.79357 2.16406Z" stroke="#464D61" stroke-width="0.901387" stroke-miterlimit="10" stroke-linecap="round" stroke-linejoin="round"/>
<path d="M14.0015 6.37085C14.0015 4.49596 13.5327 3.31815 12.445 2.70521C12.1386 2.53094 11.5257 2.39873 10.9668 2.30859" stroke="#464D61" stroke-width="0.901387" stroke-linecap="round" stroke-linejoin="round"/>
<path d="M1.9834 8.17578V9.97855C1.9834 12.9832 3.18525 14.185 6.18987 14.185H9.79542C12.8 14.185 14.0019 12.9832 14.0019 9.97855V8.77671" stroke="#464D61" stroke-width="0.901387" stroke-linecap="round" stroke-linejoin="round"/>
<path d="M8.59375 8.77734H11.5984" stroke="#464D61" stroke-width="0.901387" stroke-linecap="round" stroke-linejoin="round"/>
<path d="M7.3916 11.1797H11.5981" stroke="#464D61" stroke-width="0.901387" stroke-linecap="round" stroke-linejoin="round"/>
</svg>
