<svg width="44" height="18" viewBox="0 0 44 18" fill="none" xmlns="http://www.w3.org/2000/svg">
<path d="M20.7971 8.78243V13.8957H19.1479V1.25H23.4371C24.4812 1.25 25.4704 1.63414 26.2412 2.34914C27.0112 3.00828 27.3962 3.99829 27.3962 5.04329C27.3962 6.08829 27.0121 7.02243 26.2412 7.73743C25.4712 8.45243 24.5371 8.83657 23.4371 8.83657L20.7971 8.78243ZM20.7971 2.78914V7.18829H23.5471C24.1521 7.18829 24.7571 6.96743 25.1421 6.52915C26.0221 5.70501 26.0221 4.33 25.1962 3.505L25.1421 3.44914C24.7021 3.00914 24.1521 2.73414 23.5471 2.79H20.7971V2.78914Z" fill="#5F6368"/>
<path d="M31.1893 4.98828C32.3993 4.98828 33.3334 5.31742 34.0484 5.97828C34.7634 6.63742 35.0926 7.51743 35.0926 8.61743V13.8966H33.5534V12.6866H33.4993C32.8401 13.6766 31.9043 14.1716 30.8051 14.1716C29.871 14.1716 29.0451 13.8966 28.386 13.3474C27.781 12.7974 27.396 12.0274 27.396 11.2033C27.396 10.3233 27.726 9.61001 28.386 9.05915C29.0451 8.50915 29.9793 8.28914 31.0801 8.28914C32.0701 8.28914 32.8401 8.45415 33.4443 8.83915V8.455C33.4443 7.905 33.2251 7.35586 32.7851 7.025C32.3451 6.64086 31.7951 6.42 31.1901 6.42C30.256 6.42 29.541 6.80414 29.046 7.575L27.616 6.695C28.4951 5.53742 29.6501 4.98828 31.1893 4.98828ZM29.1001 11.2557C29.1001 11.6957 29.3193 12.0799 29.6501 12.2999C30.0343 12.5749 30.4743 12.7399 30.9143 12.7399C31.5734 12.7399 32.2343 12.4649 32.7284 11.9707C33.2784 11.4749 33.5526 10.8716 33.5526 10.2107C33.0584 9.82657 32.3426 9.60571 31.4084 9.60571C30.7493 9.60571 30.1984 9.77071 29.7593 10.0998C29.3193 10.3757 29.1001 10.7607 29.1001 11.2557Z" fill="#5F6368"/>
<path d="M44.0001 5.26367L38.5577 17.7435H36.9068L38.9418 13.4002L35.3677 5.31781H37.1277L39.711 11.5302H39.766L42.2951 5.31781H44.0001V5.26367Z" fill="#5F6368"/>
<path d="M14.2554 7.68227C14.2554 7.18641 14.1995 6.69227 14.1454 6.19727H7.27295V9.00141H11.1762C11.0112 9.88141 10.5171 10.7056 9.74623 11.2006V13.0147H12.1104C13.4845 11.7506 14.2554 9.88055 14.2554 7.68227Z" fill="#4285F4"/>
<path d="M7.27112 14.7739C9.25027 14.7739 10.8994 14.1148 12.1103 13.0139L9.74613 11.1998C9.08698 11.6398 8.26112 11.9148 7.27284 11.9148C5.40284 11.9148 3.7537 10.6506 3.20455 8.89062H0.783691V10.7606C2.04783 13.2348 4.52284 14.7739 7.27112 14.7739Z" fill="#34A853"/>
<path d="M3.20289 8.8929C2.87289 8.0129 2.87289 7.02289 3.20289 6.08875V4.21875H0.783751C-0.26125 6.25375 -0.26125 8.6729 0.783751 10.762L3.20289 8.8929Z" fill="#FBBC04"/>
<path d="M7.2713 3.11873C8.3163 3.11873 9.3063 3.50288 10.0754 4.21788L12.1654 2.12873C10.8454 0.91959 9.0863 0.204589 7.3263 0.25873C4.57629 0.25873 2.04887 1.79787 0.838867 4.27288L3.25801 6.14116C3.75301 4.38374 5.40215 3.11873 7.2713 3.11873Z" fill="#EA4335"/>
</svg>
