<svg width="36" height="36" viewBox="0 0 36 36" fill="none" xmlns="http://www.w3.org/2000/svg">
<rect width="36" height="36" rx="18" fill="#414141"/>
<path d="M9.66699 18.8263V20.5013C9.66699 24.668 11.3337 26.3346 15.5003 26.3346H20.5003C24.667 26.3346 26.3337 24.668 26.3337 20.5013V15.5013C26.3337 11.3346 24.667 9.66797 20.5003 9.66797H15.5003C11.3337 9.66797 9.66699 11.3346 9.66699 15.5013" stroke="white" stroke-width="1.5" stroke-linecap="round" stroke-linejoin="round"/>
<path d="M17.1663 14.6667C17.1663 15.5833 16.4163 16.3333 15.4997 16.3333C14.583 16.3333 13.833 15.5833 13.833 14.6667C13.833 13.75 14.583 13 15.4997 13" stroke="white" stroke-width="1.5" stroke-linecap="round" stroke-linejoin="round"/>
<path d="M10.2246 23.7918L14.3329 21.0335C14.9913 20.5918 15.9413 20.6418 16.5329 21.1501L16.8079 21.3918C17.4579 21.9501 18.5079 21.9501 19.1579 21.3918L22.6246 18.4168C23.2746 17.8585 24.3246 17.8585 24.9746 18.4168L26.3329 19.5835" stroke="white" stroke-width="1.5" stroke-linecap="round" stroke-linejoin="round"/>
</svg>
