<svg width="37" height="36" viewBox="0 0 37 36" fill="none" xmlns="http://www.w3.org/2000/svg">
<rect x="0.5" width="36" height="36" rx="18" fill="#414141"/>
<path d="M15.4834 17.9991L17.4917 20.0158L21.5167 15.9824" stroke="white" stroke-width="1.5" stroke-linecap="round" stroke-linejoin="round"/>
<path d="M12.0334 13.1671C12.0334 12.2837 12.7584 11.5587 13.6417 11.5587H15.0834C15.4167 11.5587 15.8834 11.3837 16.1334 11.1754L17.4501 10.0504C18.0334 9.55872 18.9751 9.55872 19.5417 10.0504L20.8584 11.1754C21.1084 11.3837 21.5834 11.5587 21.9167 11.5587H23.3334C24.2167 11.5587 24.9417 12.2837 24.9417 13.1671V14.5837C24.9417 14.9171 25.1167 15.3837 25.3251 15.6337L26.4501 16.9504C26.9417 17.5337 26.9417 18.4754 26.4501 19.0421L25.3251 20.3587C25.1167 20.6087 24.9417 21.0754 24.9417 21.4087V22.8254C24.9417 23.7087 24.2167 24.4337 23.3334 24.4337H21.9167C21.5834 24.4337 21.1167 24.6087 20.8667 24.8171L19.5501 25.9421C18.9667 26.4337 18.0251 26.4337 17.4584 25.9421L16.1417 24.8171C15.8917 24.6087 15.4167 24.4337 15.0917 24.4337H13.6417C12.7584 24.4337 12.0334 23.7087 12.0334 22.8254V21.4004C12.0334 21.0754 11.8667 20.6004 11.6584 20.3587L10.5334 19.0337C10.0501 18.4587 10.0501 17.5254 10.5334 16.9504L11.0001 16.4004" stroke="white" stroke-width="1.5" stroke-linecap="round" stroke-linejoin="round"/>
</svg>
