<svg width="19" height="13" viewBox="0 0 19 13" fill="none" xmlns="http://www.w3.org/2000/svg">
<path d="M18.1094 11.2637L13.8804 1.54551C13.73 1.19991 13.4024 0.978516 13.0417 0.978516H10.0894L10.1635 1.68187C10.1786 1.82521 10.0664 1.95034 9.92266 1.95034H9.04048C8.89678 1.95034 8.78454 1.82521 8.79966 1.68187L8.87378 0.978516H5.92139C5.56047 0.978516 5.23283 1.19991 5.08247 1.54551L0.853401 11.2637C0.57356 11.9072 1.0201 12.6404 1.69262 12.6404H7.64763L7.95954 9.67388C7.98556 9.42668 8.19309 9.23899 8.44086 9.23899H10.5223C10.77 9.23899 10.9776 9.42668 11.0036 9.67388L11.3155 12.6404H17.2705C17.943 12.6404 18.3896 11.9072 18.1094 11.2637ZM8.64658 3.1396C8.65286 3.07989 8.68095 3.02463 8.72541 2.98448C8.76988 2.94433 8.82759 2.92213 8.8874 2.92216H10.076C10.1998 2.92216 10.3038 3.016 10.3169 3.1396L10.456 4.4631C10.4787 4.67842 10.3105 4.8658 10.0951 4.8658H8.86864C8.65294 4.8658 8.48503 4.67842 8.50772 4.4631L8.64658 3.1396ZM10.3178 8.26717H8.64507C8.35767 8.26717 8.13349 8.01723 8.16375 7.73024L8.31713 6.27251C8.34315 6.0253 8.55068 5.83762 8.79845 5.83762H10.1644C10.4122 5.83762 10.6197 6.0253 10.6457 6.27251L10.7991 7.73024C10.8293 8.01723 10.6052 8.26717 10.3178 8.26717Z" fill="#1E293B"/>
</svg>
