<svg width="20" height="21" viewBox="0 0 20 21" fill="none" xmlns="http://www.w3.org/2000/svg">
<path d="M2.72532 10.5C2.06699 9.70833 1.66699 8.69167 1.66699 7.58333C1.66699 5.06667 3.72533 3 6.25033 3H10.417C12.9337 3 15.0003 5.06667 15.0003 7.58333C15.0003 10.1 12.942 12.1667 10.417 12.1667H8.33366" stroke="#292D32" stroke-linecap="round" stroke-linejoin="round"/>
<path d="M9.98334 17.9987H9.58333C7.06667 17.9987 5 15.932 5 13.4154C5 10.8987 7.05833 8.83203 9.58333 8.83203H11.6667" stroke="#292D32" stroke-linecap="round" stroke-linejoin="round"/>
<path d="M17.275 10.5C17.9333 11.2917 18.3333 12.3083 18.3333 13.4167C18.3333 15.9333 16.275 18 13.75 18" stroke="#292D32" stroke-linecap="round" stroke-linejoin="round"/>
</svg>
