<svg width="20" height="20" viewBox="0 0 20 20" fill="none" xmlns="http://www.w3.org/2000/svg">
<path d="M1.66699 9.63373V11.1921C1.66699 13.6921 3.33366 15.3588 5.83366 15.3588H9.16699L12.8753 17.8254C13.4253 18.1921 14.167 17.8004 14.167 17.1338V15.3588C16.667 15.3588 18.3337 13.6921 18.3337 11.1921V6.19206C18.3337 3.69206 16.667 2.02539 14.167 2.02539H5.83366C3.33366 2.02539 1.66699 3.69206 1.66699 6.19206" stroke="#292D32" stroke-miterlimit="10" stroke-linecap="round" stroke-linejoin="round"/>
<path d="M9.99952 9.4668V9.29183C9.99952 8.72516 10.3495 8.42515 10.6995 8.18348C11.0412 7.95015 11.3828 7.65016 11.3828 7.10016C11.3828 6.33349 10.7662 5.7168 9.99952 5.7168C9.23286 5.7168 8.61621 6.33349 8.61621 7.10016" stroke="#292D32" stroke-linecap="round" stroke-linejoin="round"/>
<path d="M9.99592 11.4596H10.0034" stroke="#292D32" stroke-linecap="round" stroke-linejoin="round"/>
</svg>
