<svg width="20" height="21" viewBox="0 0 20 21" fill="none" xmlns="http://www.w3.org/2000/svg">
<path d="M10 5.86719V8.64219" stroke="#28322F" stroke-miterlimit="10" stroke-linecap="round"/>
<path d="M17.1585 13.141C17.7669 14.1577 17.2835 15.4743 16.1585 15.8493C12.1752 17.1743 7.86685 17.1743 3.88352 15.8493C2.68352 15.4493 2.22519 14.2327 2.88352 13.141L3.94185 11.3743C4.23352 10.891 4.46685 10.0327 4.46685 9.47435V7.72435C4.46685 4.64935 6.95019 2.16602 10.0169 2.16602C13.0669 2.16602 15.5669 4.66602 15.5669 7.71602V9.46602C15.5669 9.61602 15.5835 9.78268 15.6085 9.95768" stroke="#28322F" stroke-miterlimit="10" stroke-linecap="round"/>
<path d="M12.7746 16.1836C12.7746 17.7086 11.5246 18.9586 9.99961 18.9586C9.24128 18.9586 8.54128 18.6419 8.04128 18.1419C7.54128 17.6419 7.22461 16.9419 7.22461 16.1836" stroke="#28322F" stroke-miterlimit="10"/>
</svg>
