<svg width="16" height="16" viewBox="0 0 16 16" fill="none" xmlns="http://www.w3.org/2000/svg">
<path fill-rule="evenodd" clip-rule="evenodd" d="M15.6556 0.989378C15.7855 1.11952 15.8585 1.29587 15.8585 1.47973C15.8585 1.66359 15.7855 1.83994 15.6556 1.97008L14.7749 2.85083V5.26095C14.7748 5.41563 14.7231 5.56586 14.6279 5.68779C14.5328 5.80973 14.3996 5.89638 14.2496 5.934L12.6069 6.34494V7.44116C12.6067 7.49239 12.6167 7.54315 12.6363 7.59051C12.6558 7.63788 12.6845 7.68091 12.7207 7.71714C12.757 7.75337 12.8 7.78208 12.8474 7.80162C12.8947 7.82116 12.9455 7.83114 12.9967 7.831C13.7558 7.831 14.4838 8.13254 15.0206 8.6693C15.5573 9.20606 15.8589 9.93406 15.8589 10.6931C15.8589 11.4522 15.5573 12.1802 15.0206 12.717C14.4838 13.2537 13.7558 13.5553 12.9967 13.5553H10.3001V13.9185C10.3001 14.3603 10.1245 14.7841 9.81212 15.0965C9.49969 15.4089 9.07594 15.5845 8.63409 15.5845H2.18453C1.74269 15.5845 1.31894 15.4089 1.00651 15.0965C0.694077 14.7841 0.518555 14.3603 0.518555 13.9185V4.24248C0.518555 3.50607 0.811092 2.79982 1.33181 2.2791C1.85253 1.75838 2.55878 1.46585 3.29519 1.46585H7.52233C8.25874 1.46585 8.96498 1.75838 9.4857 2.2791C10.0064 2.79982 10.299 3.50607 10.299 4.24248V12.167H12.9956C13.3865 12.167 13.7614 12.0117 14.0378 11.7353C14.3142 11.4589 14.4695 11.084 14.4695 10.6931C14.4695 10.3023 14.3142 9.92738 14.0378 9.65099C13.7614 9.37459 13.3865 9.21931 12.9956 9.21931C12.5243 9.21931 12.0723 9.03209 11.7391 8.69883C11.4058 8.36557 11.2186 7.91357 11.2186 7.44227V4.73005C11.2186 4.5468 11.2908 4.3702 11.4207 4.23915L14.6749 0.990488C14.7394 0.92601 14.8159 0.874863 14.9002 0.839967C14.9844 0.80507 15.0747 0.787109 15.1658 0.787109C15.257 0.787109 15.3473 0.80507 15.4315 0.839967C15.5158 0.874863 15.5923 0.92601 15.6567 0.990488L15.6556 0.989378ZM1.6281 7.96983V5.45642H9.18942V7.96983H1.6281ZM7.03697 10.5421C7.42015 10.5421 7.73113 10.8531 7.73113 11.2363V12.3203C7.73113 12.5044 7.658 12.6809 7.52782 12.8111C7.39764 12.9413 7.22108 13.0144 7.03697 13.0144C6.85287 13.0144 6.67631 12.9413 6.54613 12.8111C6.41595 12.6809 6.34282 12.5044 6.34282 12.3203V11.2363C6.34282 10.8531 6.6538 10.5421 7.03697 10.5421Z" fill="#1E293B"/>
</svg>
