<svg width="36" height="36" viewBox="0 0 36 36" fill="none" xmlns="http://www.w3.org/2000/svg">
<rect width="36" height="36" rx="18" fill="#414141"/>
<path d="M15.8253 13.0077C15.9753 13.216 16.0837 13.4077 16.1587 13.591C16.2337 13.766 16.2753 13.941 16.2753 14.0993C16.2753 14.2993 16.217 14.4993 16.1003 14.691C15.992 14.8827 15.8337 15.0827 15.6337 15.2827L15.0003 15.941C14.9087 16.0327 14.867 16.141 14.867 16.2743C14.867 16.341 14.8753 16.3993 14.892 16.466C14.917 16.5327 14.942 16.5827 14.9587 16.6327C15.1087 16.9077 15.367 17.266 15.7337 17.6993C16.1087 18.1327 16.5087 18.5743 16.942 19.016C17.392 19.4577 17.8253 19.866 18.267 20.241C18.7003 20.6077 19.0587 20.8577 19.342 21.0077C19.3837 21.0243 19.4337 21.0493 19.492 21.0743C19.5587 21.0993 19.6253 21.1077 19.7003 21.1077C19.842 21.1077 19.9503 21.0577 20.042 20.966L20.6753 20.341C20.8837 20.1327 21.0837 19.9743 21.2753 19.8743C21.467 19.7577 21.6587 19.6993 21.867 19.6993C22.0253 19.6993 22.192 19.7327 22.3753 19.8077C22.5587 19.8827 22.7503 19.991 22.9587 20.1327L25.717 22.091C25.9337 22.241 26.0837 22.416 26.1753 22.6243C26.2587 22.8327 26.3087 23.041 26.3087 23.2743C26.3087 23.5743 26.242 23.8827 26.1003 24.1827C25.9587 24.4827 25.7753 24.766 25.5337 25.0327C25.1253 25.4827 24.6753 25.8077 24.167 26.016C23.667 26.2243 23.1253 26.3327 22.542 26.3327C21.692 26.3327 20.7837 26.1327 19.8253 25.7243C18.867 25.316 17.9087 24.766 16.9587 24.0743C16.0003 23.3743 15.092 22.5993 14.2253 21.741C13.367 20.8743 12.592 19.966 11.9003 19.016C11.217 18.066 10.667 17.116 10.267 16.1743C9.86699 15.2243 9.66699 14.316 9.66699 13.4493C9.66699 12.8827 9.76699 12.341 9.96699 11.841C10.167 11.3327 10.4837 10.866 10.9253 10.4493C11.4587 9.92435 12.042 9.66602 12.6587 9.66602C12.892 9.66602 13.1253 9.71602 13.3337 9.81602C13.5503 9.91602 13.742 10.066 13.892 10.2827" stroke="white" stroke-width="1.5" stroke-miterlimit="10" stroke-linecap="round" stroke-linejoin="round"/>
</svg>
