<svg width="20" height="21" viewBox="0 0 20 21" fill="none" xmlns="http://www.w3.org/2000/svg">
<path d="M18.333 5.5013V7.51797C18.333 8.83463 17.4997 9.66797 16.183 9.66797H13.333V3.84297C13.333 2.91797 14.0913 2.16797 15.0163 2.16797C15.9247 2.1763 16.758 2.54297 17.358 3.14297C17.958 3.7513 18.333 4.58464 18.333 5.5013Z" stroke="#292D32" stroke-miterlimit="10" stroke-linecap="round" stroke-linejoin="round"/>
<path d="M7.5 11.3418H10" stroke="#292D32" stroke-linecap="round" stroke-linejoin="round"/>
<path d="M7.5 8.00781H10" stroke="#292D32" stroke-linecap="round" stroke-linejoin="round"/>
<path d="M1.66699 9.66797V18.0013C1.66699 18.693 2.45033 19.0846 3.00033 18.668L4.42533 17.6013C4.75866 17.3513 5.22533 17.3846 5.52533 17.6846L6.90866 19.0763C7.23366 19.4013 7.76699 19.4013 8.09199 19.0763L9.49199 17.6763C9.78366 17.3846 10.2503 17.3513 10.5753 17.6013L12.0003 18.668C12.5503 19.0763 13.3337 18.6846 13.3337 18.0013V3.83464C13.3337 2.91797 14.0837 2.16797 15.0003 2.16797H5.83366H5.00033C2.50033 2.16797 1.66699 3.65964 1.66699 5.5013V6.33464" stroke="#292D32" stroke-miterlimit="10" stroke-linecap="round" stroke-linejoin="round"/>
<path d="M4.99609 11.332H5.00358" stroke="#292D32" stroke-width="1.5" stroke-linecap="round" stroke-linejoin="round"/>
<path d="M4.99607 7.9987H5.00356" stroke="#292D32" stroke-width="1.5" stroke-linecap="round" stroke-linejoin="round"/>
</svg>
