<svg width="36" height="36" viewBox="0 0 36 36" fill="none" xmlns="http://www.w3.org/2000/svg">
<rect width="36" height="36" rx="18" fill="#414141"/>
<path d="M20.7502 22.1252C20.7499 22.7293 20.8831 23.326 21.1402 23.8727C20.653 24.3005 20.026 24.5352 19.3777 24.5327H14.6227C13.9112 24.5307 13.2294 24.2472 12.7263 23.7441C12.2232 23.2409 11.9396 22.5592 11.9377 21.8477C11.9313 21.1042 12.1121 20.371 12.4633 19.7157C12.8146 19.0604 13.325 18.504 13.9477 18.0977C14.7925 18.8281 15.8721 19.2301 16.9889 19.2301C18.1058 19.2301 19.1853 18.8281 20.0302 18.0977C20.3901 18.3345 20.7114 18.6254 20.9827 18.9602C21.1823 19.1903 21.3559 19.4418 21.5002 19.7102C20.9983 20.4142 20.7355 21.2607 20.7502 22.1252Z" fill="white"/>
<path d="M16.9847 18.5475C19.1552 18.5475 20.9147 16.788 20.9147 14.6175C20.9147 12.447 19.1552 10.6875 16.9847 10.6875C14.8142 10.6875 13.0547 12.447 13.0547 14.6175C13.0547 16.788 14.8142 18.5475 16.9847 18.5475Z" fill="white"/>
<path d="M24.875 18.75C24.3512 18.7491 23.8345 18.8715 23.3667 19.1073C22.899 19.3432 22.4933 19.6858 22.1825 20.1075C21.7378 20.6858 21.4977 21.3955 21.5 22.125C21.4979 22.9179 21.777 23.6859 22.2875 24.2925C22.652 24.7276 23.1204 25.0637 23.6492 25.2697C24.178 25.4758 24.7503 25.5451 25.3131 25.4714C25.8758 25.3976 26.4109 25.1832 26.8688 24.8478C27.3267 24.5124 27.6926 24.067 27.9327 23.5527C28.1728 23.0384 28.2793 22.4719 28.2424 21.9055C28.2055 21.3391 28.0263 20.7912 27.7215 20.3125C27.4167 19.8337 26.9961 19.4395 26.4985 19.1664C26.001 18.8933 25.4426 18.7501 24.875 18.75ZM24.875 24.09C24.7271 24.09 24.5852 24.0318 24.4799 23.9279C24.3746 23.824 24.3145 23.6829 24.3125 23.535C24.3125 23.3858 24.3718 23.2427 24.4773 23.1373C24.5828 23.0318 24.7258 22.9725 24.875 22.9725C25.0242 22.9725 25.1673 23.0318 25.2728 23.1373C25.3783 23.2427 25.4375 23.3858 25.4375 23.535C25.4355 23.6829 25.3754 23.824 25.2701 23.9279C25.1649 24.0318 25.0229 24.09 24.875 24.09ZM25.4375 22.035C25.4375 22.1842 25.3783 22.3273 25.2728 22.4328C25.1673 22.5382 25.0242 22.5975 24.875 22.5975C24.7258 22.5975 24.5828 22.5382 24.4773 22.4328C24.3718 22.3273 24.3125 22.1842 24.3125 22.035V20.535C24.3125 20.3858 24.3718 20.2427 24.4773 20.1373C24.5828 20.0318 24.7258 19.9725 24.875 19.9725C25.0242 19.9725 25.1673 20.0318 25.2728 20.1373C25.3783 20.2427 25.4375 20.3858 25.4375 20.535V22.035Z" fill="white"/>
</svg>
