<svg width="34" height="21" viewBox="0 0 34 21" fill="none" xmlns="http://www.w3.org/2000/svg">
<path d="M21.5866 2.24609H12.3857V18.7539H21.5866V2.24609Z" fill="#FF5A00"/>
<path d="M12.9982 10.5C12.9982 7.14611 14.5771 4.16939 16.9998 2.24609C15.2168 0.846115 12.9676 0 10.5143 0C4.70247 0 0 4.6961 0 10.5C0 16.3039 4.70247 21 10.5143 21C12.9676 21 15.2168 20.1538 16.9998 18.7539C14.5737 16.8577 12.9982 13.8538 12.9982 10.5Z" fill="#EB001B"/>
<path d="M33.9998 10.5C33.9998 16.3039 29.2972 21 23.4855 21C21.0322 21 18.783 20.1538 17 18.7539C19.4533 16.8272 21.0015 13.8538 21.0015 10.5C21.0015 7.14611 19.4227 4.16939 17 2.24609C18.7796 0.846115 21.0288 0 23.4821 0C29.2972 0 33.9998 4.7267 33.9998 10.5Z" fill="#F79E1B"/>
</svg>
