<svg width="146" height="145" viewBox="0 0 146 145" fill="none" xmlns="http://www.w3.org/2000/svg">
<path d="M73 84.584H79.0417C85.6875 84.584 91.125 79.1465 91.125 72.5006V12.084H36.75C27.6875 12.084 19.773 17.0985 15.6647 24.4693" stroke="#292D32" stroke-width="2.5" stroke-linecap="round" stroke-linejoin="round"/>
<path d="M12.5833 102.709C12.5833 112.738 20.6791 120.834 30.7083 120.834H36.75C36.75 114.188 42.1875 108.751 48.8333 108.751C55.4791 108.751 60.9166 114.188 60.9166 120.834H85.0833C85.0833 114.188 90.5208 108.751 97.1667 108.751C103.812 108.751 109.25 114.188 109.25 120.834H115.292C125.321 120.834 133.417 112.738 133.417 102.709V84.584H115.292C111.969 84.584 109.25 81.8652 109.25 78.5423V60.4173C109.25 57.0944 111.969 54.3757 115.292 54.3757H123.085L112.754 36.3111C110.579 32.5653 106.592 30.209 102.242 30.209H91.125V72.5006C91.125 79.1465 85.6875 84.584 79.0416 84.584H73" stroke="#292D32" stroke-width="2.5" stroke-linecap="round" stroke-linejoin="round"/>
<path d="M48.8333 132.917C55.5068 132.917 60.9167 127.507 60.9167 120.833C60.9167 114.16 55.5068 108.75 48.8333 108.75C42.1599 108.75 36.75 114.16 36.75 120.833C36.75 127.507 42.1599 132.917 48.8333 132.917Z" stroke="#292D32" stroke-width="2.5" stroke-linecap="round" stroke-linejoin="round"/>
<path d="M97.1666 132.917C103.84 132.917 109.25 127.507 109.25 120.833C109.25 114.16 103.84 108.75 97.1666 108.75C90.4932 108.75 85.0833 114.16 85.0833 120.833C85.0833 127.507 90.4932 132.917 97.1666 132.917Z" stroke="#292D32" stroke-width="2.5" stroke-linecap="round" stroke-linejoin="round"/>
<path d="M133.417 72.5V84.5833H115.292C111.969 84.5833 109.25 81.8646 109.25 78.5417V60.4167C109.25 57.0938 111.969 54.375 115.292 54.375H123.085L133.417 72.5Z" stroke="#292D32" stroke-width="2.5" stroke-linecap="round" stroke-linejoin="round"/>
<path d="M12.5833 48.334H48.8333" stroke="#292D32" stroke-width="2.5" stroke-linecap="round" stroke-linejoin="round"/>
<path d="M12.5833 66.459H36.75" stroke="#292D32" stroke-width="2.5" stroke-linecap="round" stroke-linejoin="round"/>
<path d="M12.5833 84.584H24.6666" stroke="#292D32" stroke-width="2.5" stroke-linecap="round" stroke-linejoin="round"/>
</svg>
