<svg width="20" height="21" viewBox="0 0 20 21" fill="none" xmlns="http://www.w3.org/2000/svg">
<path d="M12.5164 3.00964C11.8164 2.47631 10.9497 2.16797 9.99967 2.16797C7.69967 2.16797 5.83301 4.03464 5.83301 6.33464C5.83301 8.63464 7.69967 10.5013 9.99967 10.5013C12.2997 10.5013 14.1663 8.63464 14.1663 6.33464" stroke="#292D32" stroke-linecap="round" stroke-linejoin="round"/>
<path d="M16.0085 13.6162L13.0585 16.5662C12.9418 16.6829 12.8335 16.8995 12.8085 17.0579L12.6502 18.1828C12.5919 18.5912 12.8752 18.8745 13.2835 18.8162L14.4085 18.6579C14.5668 18.6329 14.7919 18.5245 14.9002 18.4079L17.8502 15.4579C18.3585 14.9495 18.6002 14.3579 17.8502 13.6079C17.1085 12.8662 16.5169 13.1079 16.0085 13.6162Z" stroke="#292D32" stroke-miterlimit="10" stroke-linecap="round" stroke-linejoin="round"/>
<path d="M15.584 14.041C15.834 14.941 16.534 15.641 17.434 15.891" stroke="#292D32" stroke-miterlimit="10" stroke-linecap="round" stroke-linejoin="round"/>
<path d="M2.8418 18.8333C2.8418 15.6083 6.05015 13 10.0002 13C10.8668 13 11.7001 13.125 12.4751 13.3583" stroke="#292D32" stroke-linecap="round" stroke-linejoin="round"/>
</svg>
