<svg width="38" height="23" viewBox="0 0 38 23" fill="none" xmlns="http://www.w3.org/2000/svg">
<g clip-path="url(#clip0_2_8961)">
<mask id="mask0_2_8961" style="mask-type:luminance" maskUnits="userSpaceOnUse" x="0" y="0" width="38" height="23">
<path d="M38 0H0V23H38V0Z" fill="white"/>
</mask>
<g mask="url(#mask0_2_8961)">
<path d="M1.94872 0H36.0513C37.1276 0 38 0.823814 38 1.84V21.16C38 22.1762 37.1276 23 36.0513 23H1.94872C0.87249 23 0 22.1762 0 21.16V1.84C0 0.823814 0.87249 0 1.94872 0Z" fill="#1434CB"/>
<path d="M23.8632 6.58398C21.5815 6.58398 19.5425 7.70096 19.5425 9.76465C19.5425 12.1314 23.1588 12.2948 23.1588 13.4838C23.1588 13.9844 22.5513 14.4325 21.5139 14.4325C20.0415 14.4325 18.941 13.8064 18.941 13.8064L18.4701 15.8889C18.4701 15.8889 19.7379 16.4178 21.4209 16.4178C23.9156 16.4178 25.8785 15.246 25.8785 13.1469C25.8785 10.6462 22.2472 10.4875 22.2472 9.384C22.2472 8.99181 22.7458 8.56212 23.7803 8.56212C24.9476 8.56212 25.8999 9.01752 25.8999 9.01752L26.3607 7.00617C26.3607 7.00617 25.3245 6.58398 23.8632 6.58398ZM2.98787 6.73578L2.93262 7.03938C2.93262 7.03938 3.89253 7.20531 4.75709 7.53632C5.87029 7.91582 5.94956 8.13681 6.13707 8.82303L8.18001 16.2612H10.9186L15.1376 6.73578H12.4053L9.69436 13.2122L8.58812 7.72248C8.48664 7.09422 7.97277 6.73578 7.34377 6.73578H2.98787ZM16.2363 6.73578L14.0929 16.2612H16.6984L18.8343 6.73578H16.2363ZM30.768 6.73578C30.1398 6.73578 29.8069 7.05351 29.5626 7.60863L25.7454 16.2612H28.4777L29.0064 14.8191H32.3351L32.6565 16.2612H35.0674L32.9642 6.73578H30.768ZM31.1234 9.30925L31.9333 12.8837H29.7635L31.1234 9.30925Z" fill="white"/>
</g>
</g>
<defs>
<clipPath id="clip0_2_8961">
<rect width="38" height="23" fill="white"/>
</clipPath>
</defs>
</svg>
